<svg width="40" height="40" viewBox="0 0 40 40" fill="none" xmlns="http://www.w3.org/2000/svg">
<g id="Frame 1">
<g id="Group 1">
<path id="Vector 28" d="M4 35.773H6.22699M37 35.773H33.3558M33.3558 35.773V24.4356M33.3558 35.773H27.8896M33.3558 21.6012H34.1656M33.3558 18.9693V7.42945H31.7362M17.362 35.773V18.9693M17.362 35.773H13.9202M17.362 35.773H23.2331M17.362 18.9693V7.42945H19.7914M17.362 18.9693H11.7945M6.22699 18.9693V15.7301H11.6933L11.7945 18.9693M6.22699 18.9693H11.7945M6.22699 18.9693V35.773M6.22699 35.773H10.2761M9.46626 20.7914V29.6994M11.7945 20.7914V29.6994M14.5276 20.7914V29.6994M10.2761 35.773V31.7239H13.9202V35.773M10.2761 35.773H13.9202M27.8896 35.773V29.2945H23.2331V35.773M27.8896 35.773H23.2331M19.7914 7.42945V5H31.7362V7.42945M19.7914 7.42945H31.7362" stroke="#E30613" stroke-width="1.5" stroke-linecap="round"/>
<path id="Vector 29" d="M27.0801 13.1104V12.0736C27.0801 11.5213 27.5278 11.0736 28.0801 11.0736H29.5218C30.0741 11.0736 30.5218 11.5213 30.5218 12.0736V13.1104C30.5218 13.6627 30.0741 14.1104 29.5218 14.1104H28.0801C27.5278 14.1104 27.0801 13.6627 27.0801 13.1104Z" stroke="#E30613" stroke-width="1.5" stroke-linecap="round"/>
<path id="Vector 30" d="M26.877 18.7791V17.7423C26.877 17.19 27.3247 16.7423 27.877 16.7423H29.3187C29.871 16.7423 30.3187 17.19 30.3187 17.7423V18.7791C30.3187 19.3314 29.871 19.7791 29.3187 19.7791H27.877C27.3247 19.7791 26.877 19.3314 26.877 18.7791Z" stroke="#E30613" stroke-width="1.5" stroke-linecap="round"/>
<path id="Vector 31" d="M26.877 24.8527V23.8159C26.877 23.2636 27.3247 22.8159 27.877 22.8159H29.3187C29.871 22.8159 30.3187 23.2636 30.3187 23.8159V24.8527C30.3187 25.405 29.871 25.8527 29.3187 25.8527H27.877C27.3247 25.8527 26.877 25.405 26.877 24.8527Z" stroke="#E30613" stroke-width="1.5" stroke-linecap="round"/>
<path id="Vector 32" d="M20.6016 13.1104V12.0736C20.6016 11.5213 21.0493 11.0736 21.6016 11.0736H23.0433C23.5956 11.0736 24.0433 11.5213 24.0433 12.0736V13.1104C24.0433 13.6627 23.5956 14.1104 23.0433 14.1104H21.6016C21.0493 14.1104 20.6016 13.6627 20.6016 13.1104Z" stroke="#E30613" stroke-width="1.5" stroke-linecap="round"/>
<path id="Vector 33" d="M20.3984 18.7791V17.7423C20.3984 17.19 20.8462 16.7423 21.3984 16.7423H22.8402C23.3924 16.7423 23.8402 17.19 23.8402 17.7423V18.7791C23.8402 19.3314 23.3924 19.7791 22.8402 19.7791H21.3984C20.8462 19.7791 20.3984 19.3314 20.3984 18.7791Z" stroke="#E30613" stroke-width="1.5" stroke-linecap="round"/>
<path id="Vector 34" d="M20.3984 24.8527V23.8159C20.3984 23.2636 20.8462 22.8159 21.3984 22.8159H22.8402C23.3924 22.8159 23.8402 23.2636 23.8402 23.8159V24.8527C23.8402 25.405 23.3924 25.8527 22.8402 25.8527H21.3984C20.8462 25.8527 20.3984 25.405 20.3984 24.8527Z" stroke="#E30613" stroke-width="1.5" stroke-linecap="round"/>
</g>
</g>
</svg>
