<svg width="40" height="40" viewBox="0 0 40 40" fill="none" xmlns="http://www.w3.org/2000/svg">
<g id="Frame 1" clip-path="url(#clip0_38_1721)">
<g id="Group 1">
<g id="Vector 14">
<path d="M7.10056 17.2402V13.2139C6.85071 11.7887 4.83202 11.7166 4.48111 13.1203L3.61453 16.5866H5.13966L7.10056 17.2402Z" fill="#E30613"/>
<path d="M2.71798 26.5565C2.80934 26.2093 2.60197 25.8538 2.25481 25.7625C1.90764 25.6711 1.55215 25.8785 1.46079 26.2256L2.71798 26.5565ZM30.8492 30.3165C30.4902 30.3165 30.1992 30.6075 30.1992 30.9665C30.1992 31.3255 30.4902 31.6165 30.8492 31.6165V30.3165ZM35.1722 10.2882C35.063 9.94626 34.6972 9.75761 34.3553 9.86687C34.0133 9.97612 33.8247 10.3419 33.9339 10.6839L35.1722 10.2882ZM35.4246 13.2139L36.054 13.0516L36.0494 13.0337L36.0437 13.016L35.4246 13.2139ZM7.10056 13.2139V12.5639H6.45056V13.2139H7.10056ZM8.64743 22.4037C8.73157 22.7527 9.08268 22.9674 9.43167 22.8833C9.78065 22.7992 9.99536 22.448 9.91123 22.0991L8.64743 22.4037ZM10.558 24.6874C10.4593 24.3422 10.0996 24.1423 9.75439 24.2409C9.40922 24.3396 9.20935 24.6993 9.30797 25.0445L10.558 24.6874ZM28.4525 31.6165C28.8115 31.6165 29.1025 31.3255 29.1025 30.9665C29.1025 30.6075 28.8115 30.3165 28.4525 30.3165V31.6165ZM5.13966 16.5866L5.34521 15.9699L5.24515 15.9366H5.13966V16.5866ZM3.61453 16.5866L2.98393 16.4289L2.97683 16.4573L2.97232 16.4862L3.61453 16.5866ZM1.88293 23.4583C1.82751 23.813 2.07011 24.1454 2.42479 24.2009C2.77948 24.2563 3.11193 24.0137 3.16735 23.659L1.88293 23.4583ZM14.4903 23.8582C14.4151 23.5072 14.0696 23.2836 13.7186 23.3588C13.3675 23.4341 13.144 23.7796 13.2192 24.1306L14.4903 23.8582ZM13.8728 27.1809C13.948 27.5319 14.2936 27.7555 14.6446 27.6803C14.9956 27.605 15.2192 27.2595 15.144 26.9085L13.8728 27.1809ZM16.8859 24.9428C16.808 24.5924 16.4608 24.3714 16.1104 24.4493C15.76 24.5272 15.539 24.8744 15.6169 25.2248L16.8859 24.9428ZM16.0526 27.1857C16.1305 27.5361 16.4777 27.7571 16.8282 27.6792C17.1786 27.6013 17.3995 27.2541 17.3217 26.9037L16.0526 27.1857ZM15.5535 18.7192L16.1784 18.5406L15.5535 18.7192ZM39.3559 28.4673L39.9853 28.3051L39.3559 28.4673ZM11.8928 19.8517L11.2762 20.0572L11.8928 19.8517ZM11.6525 19.1307L11.0359 19.3362L11.6525 19.1307ZM7.45348 33.2149L7.82832 32.6839L7.45348 33.2149ZM1.46079 26.2256L0.948215 28.1734L2.20541 28.5043L2.71798 26.5565L1.46079 26.2256ZM3.16073 31.4746L4.18225 31.6108L4.35406 30.3222L3.33254 30.186L3.16073 31.4746ZM8.60684 34.231H32.5531V32.931H8.60684V34.231ZM35.2031 31.581V30.9665H33.9031V31.581H35.2031ZM34.5531 30.3165H30.8492V31.6165H34.5531V30.3165ZM34.5531 31.6165H37.4192V30.3165H34.5531V31.6165ZM39.9853 28.3051L36.054 13.0516L34.7952 13.3761L38.7265 28.6296L39.9853 28.3051ZM36.0437 13.016L35.1722 10.2882L33.9339 10.6839L34.8054 13.4117L36.0437 13.016ZM35.4246 12.5639H7.10056V13.8639H35.4246V12.5639ZM6.46866 13.3662L8.64743 22.4037L9.91123 22.0991L7.73246 13.0615L6.46866 13.3662ZM9.30797 25.0445L10.6365 29.6945L11.8865 29.3374L10.558 24.6874L9.30797 25.0445ZM13.1846 31.6165H28.4525V30.3165H13.1846V31.6165ZM3.89331 31.4975L6.72571 33.4969L7.4754 32.4348L4.643 30.4355L3.89331 31.4975ZM6.72571 33.4969L7.07863 33.746L7.82832 32.6839L7.4754 32.4348L6.72571 33.4969ZM4.91697 31.0058L5.78847 16.6259L4.49086 16.5473L3.61935 30.9272L4.91697 31.0058ZM7.75056 32.9658V17.2402H6.45056V32.9658H7.75056ZM7.75056 17.2402V13.2139H6.45056V17.2402H7.75056ZM4.93412 17.2032L6.89501 17.8569L7.30611 16.6236L5.34521 15.9699L4.93412 17.2032ZM3.85051 12.9626L2.98393 16.4289L4.24512 16.7442L5.1117 13.2779L3.85051 12.9626ZM3.61453 17.2366H5.13966V15.9366H3.61453V17.2366ZM2.97232 16.4862L1.88293 23.4583L3.16735 23.659L4.25673 16.6869L2.97232 16.4862ZM13.2192 24.1306L13.8728 27.1809L15.144 26.9085L14.4903 23.8582L13.2192 24.1306ZM15.6169 25.2248L16.0526 27.1857L17.3217 26.9037L16.8859 24.9428L15.6169 25.2248ZM11.0359 19.3362L11.2762 20.0572L12.5095 19.6461L12.2691 18.9251L11.0359 19.3362ZM16.1784 18.5406L15.9697 17.8099L14.7197 18.167L14.9285 18.8978L16.1784 18.5406ZM15.9697 17.8099C15.6528 16.7011 14.6394 15.9366 13.4862 15.9366V17.2366C14.0589 17.2366 14.5623 17.6163 14.7197 18.167L15.9697 17.8099ZM13.7108 21.812C15.4159 21.812 16.6468 20.1801 16.1784 18.5406L14.9285 18.8978C15.1596 19.7067 14.5522 20.512 13.7108 20.512V21.812ZM7.74079 13.1016C7.36974 10.9851 4.37167 10.878 3.85051 12.9626L5.1117 13.2779C5.29237 12.5552 6.33169 12.5924 6.46032 13.3261L7.74079 13.1016ZM37.4192 31.6165C39.1511 31.6165 40.4176 29.9823 39.9853 28.3051L38.7265 28.6296C38.9467 29.484 38.3015 30.3165 37.4192 30.3165V31.6165ZM11.2762 20.0572C11.6255 21.1052 12.6062 21.812 13.7108 21.812V20.512C13.1658 20.512 12.6818 20.1632 12.5095 19.6461L11.2762 20.0572ZM32.5531 34.231C34.0166 34.231 35.2031 33.0446 35.2031 31.581H33.9031C33.9031 32.3266 33.2987 32.931 32.5531 32.931V34.231ZM10.6365 29.6945C10.9616 30.8321 12.0014 31.6165 13.1846 31.6165V30.3165C12.5818 30.3165 12.0521 29.9169 11.8865 29.3374L10.6365 29.6945ZM12.2691 18.9251C11.9922 18.0944 12.6105 17.2366 13.4862 17.2366V15.9366C11.7232 15.9366 10.4784 17.6637 11.0359 19.3362L12.2691 18.9251ZM8.60684 32.931C8.32805 32.931 8.05609 32.8447 7.82832 32.6839L7.07863 33.746C7.52573 34.0616 8.05958 34.231 8.60684 34.231V32.931ZM0.948215 28.1734C0.542447 29.7153 1.5803 31.2639 3.16073 31.4746L3.33254 30.186C2.52742 30.0786 1.9987 29.2898 2.20541 28.5043L0.948215 28.1734Z" fill="#E30613"/>
</g>
<path id="Vector 15" d="M17.7764 16.5866H19.3015" stroke="#E30613" stroke-width="1.3" stroke-linecap="round"/>
<path id="Vector 16" d="M21.4805 16.5865H23.0056" stroke="#E30613" stroke-width="1.3" stroke-linecap="round"/>
<path id="Vector 17" d="M25.1846 16.5866H26.7097" stroke="#E30613" stroke-width="1.3" stroke-linecap="round"/>
<path id="Vector 18" d="M28.8887 16.5865H30.4138" stroke="#E30613" stroke-width="1.3" stroke-linecap="round"/>
<path id="Vector 19" d="M32.5918 16.5866H34.1169" stroke="#E30613" stroke-width="1.3" stroke-linecap="round"/>
<path id="Vector 15_2" d="M18.4297 20.2904H19.9548" stroke="#E30613" stroke-width="1.3" stroke-linecap="round"/>
<path id="Vector 16_2" d="M22.1339 20.2905H23.6591" stroke="#E30613" stroke-width="1.3" stroke-linecap="round"/>
<path id="Vector 17_2" d="M25.8379 20.2904H27.363" stroke="#E30613" stroke-width="1.3" stroke-linecap="round"/>
<path id="Vector 18_2" d="M29.5421 20.2905H31.0673" stroke="#E30613" stroke-width="1.3" stroke-linecap="round"/>
<path id="Vector 19_2" d="M33.2461 20.2904H34.7712" stroke="#E30613" stroke-width="1.3" stroke-linecap="round"/>
<path id="Vector 15_3" d="M19.3018 23.9944H20.8269" stroke="#E30613" stroke-width="1.3" stroke-linecap="round"/>
<path id="Vector 16_3" d="M23.0059 23.9944H24.531" stroke="#E30613" stroke-width="1.3" stroke-linecap="round"/>
<path id="Vector 17_3" d="M26.709 23.9944H28.2341" stroke="#E30613" stroke-width="1.3" stroke-linecap="round"/>
<path id="Vector 18_3" d="M30.4131 23.9944H31.9382" stroke="#E30613" stroke-width="1.3" stroke-linecap="round"/>
<path id="Vector 19_3" d="M34.1172 23.9944H35.6423" stroke="#E30613" stroke-width="1.3" stroke-linecap="round"/>
<path id="Vector 20" d="M5.35754 10.4861H34.5531" stroke="#E30613" stroke-width="1.3"/>
<path id="Vector 21" d="M7.47617 9.9666C7.71374 7.39139 12.7605 8.71766 9.33974 11.6069" stroke="#E30613" stroke-width="1.3" stroke-linecap="round"/>
<path id="Vector 22" d="M11.5112 9.9666C11.7488 7.39139 16.7956 8.71766 13.3748 11.6069" stroke="#E30613" stroke-width="1.3" stroke-linecap="round"/>
<path id="Vector 23" d="M15.5464 9.9666C15.7839 7.39139 20.8307 8.71766 17.4099 11.6069" stroke="#E30613" stroke-width="1.3" stroke-linecap="round"/>
<path id="Vector 24" d="M19.5815 9.9666C19.8191 7.39139 24.8659 8.71766 21.4451 11.6069" stroke="#E30613" stroke-width="1.3" stroke-linecap="round"/>
<path id="Vector 25" d="M23.6167 9.9666C23.8542 7.39139 28.901 8.71766 25.4802 11.6069" stroke="#E30613" stroke-width="1.3" stroke-linecap="round"/>
<path id="Vector 26" d="M27.6518 9.9666C27.8894 7.39139 32.9362 8.71766 29.5154 11.6069" stroke="#E30613" stroke-width="1.3" stroke-linecap="round"/>
<path id="Vector 27" d="M31.687 9.9666C31.9246 7.39139 36.9713 8.71766 33.5506 11.6069" stroke="#E30613" stroke-width="1.3" stroke-linecap="round"/>
</g>
</g>
<defs>
<clipPath id="clip0_38_1721">
<rect width="40" height="40" fill="white"/>
</clipPath>
</defs>
</svg>
