<svg width="39" height="40" viewBox="0 0 39 40" fill="none" xmlns="http://www.w3.org/2000/svg">
<g id="Frame 1">
<g id="Group 3">
<g id="Group 2">
<path id="Vector 36" d="M26.0223 4.35095C23.3226 4.54047 22.366 4.75271 22.1752 5.41959C22.1373 5.58525 22.1209 5.74101 22.1434 5.9368C22.2245 6.64135 21.8237 7.33841 21.1237 7.45222C19.9522 7.64268 19.3967 8.10594 19.3967 9.05297C19.3967 10.3353 20.6427 10.1945 23.4575 10.1216C26.2724 10.0488 24.2912 12.7096 25.5948 12.6863C26.4975 12.6703 26.6449 11.6325 27.5184 11.404C29.3615 10.9218 31.1833 13.755 31.1833 13.755M9.99247 21.8766C12.7709 20.808 9.74931 18.4448 11.2748 17.6021C13.0719 16.6094 15.258 18.0301 15.9769 19.9531C16.7098 21.9139 13.8396 24.8688 13.8396 24.8688M9.00049 7C9.00049 7 10.0315 9.09394 10.8474 9.48042C11.5263 9.802 12.0645 9.22503 12.7709 9.48042C14.7207 10.1853 9.75449 11.5076 9.35129 13.5413C9.18896 14.36 9.97168 15.1202 9.35129 15.6785C8.79293 16.1811 7.42773 15.6785 7.42773 15.6785M18.969 12.6863C20.2254 12.4917 20.692 13.8962 21.9612 13.9687C22.6331 14.0071 23.0103 13.6277 23.6711 13.755C24.7737 13.9673 25.3268 14.6641 25.8083 15.6785C26.3452 16.8096 26.1035 17.6677 25.8083 18.8845C25.2364 21.2423 24.1725 23.6637 21.7475 23.5865C20.4417 23.5449 19.4131 23.2191 18.7553 22.0904C17.8778 20.5846 20.6083 19.4626 20.0377 17.8158C19.469 16.1747 16.3441 16.9868 16.4043 15.2511C16.4534 13.8355 17.5693 12.9032 18.969 12.6863Z" stroke="#E30613" stroke-width="1.5" stroke-linecap="round"/>
<path id="Vector 35" d="M21.3888 32.9913V35.3423H27.5869L29.7242 37.9071H10.9161L13.2671 35.3423H19.0378C19.0378 35.3423 19.0378 32.9976 19.0378 31.4952M19.0378 31.4952C13.7337 31.319 9.00074 28.9999 7.5004 28C6.00006 27 4.82571 25 7.00041 25C9.17511 25 11.5 28.5 20.0001 28.5C28.5001 28.5 39.4996 17.5001 30 4.00006M19.0378 31.4952C25.2357 31.4945 29.5 28.5 31.5004 26.5M32 2.50006C37.5 10.0001 36.5 20.5 33.5 23.5" stroke="#E30613" stroke-width="1.5" stroke-linecap="round"/>
<circle id="Ellipse 176" cx="19" cy="14" r="12.35" stroke="#E30613" stroke-width="1.3"/>
</g>
</g>
</g>
</svg>
