<svg width="40" height="40" viewBox="0 0 40 40" fill="none" xmlns="http://www.w3.org/2000/svg">
<g id="Frame 1">
<path id="Vector 13" d="M3 39H5.45223M38 39H35.5478M35.5478 39V23.2222C33.3737 22.5161 31.9231 22.3398 29.9745 22.7441M35.5478 39H28.1911M28.1911 39V28.1111M28.1911 39H20.6115M28.1911 28.1111V23.2222C28.8427 23.0164 29.4282 22.8574 29.9745 22.7441M28.1911 28.1111C27.5431 27.9186 26.9578 27.7708 26.4076 27.666M20.6115 28.1111V31.4444M20.6115 28.1111C18.8482 30.7378 18.004 31.1221 16.5987 30.978M20.6115 28.1111L23.0637 23.2222M20.6115 28.1111C22.9269 27.4665 24.4426 27.2918 26.4076 27.666M20.6115 39V31.4444M20.6115 39H12.8089M20.6115 31.4444C19.0399 31.1431 17.8249 30.9775 16.5987 30.978M12.8089 39V35.2222M12.8089 39H5.45223M12.8089 35.2222V31.4444C14.2853 31.1255 15.4469 30.9785 16.5987 30.978M12.8089 35.2222C9.83669 34.6114 8.23123 34.6442 5.45223 35.2222V39M29.9745 22.7441V11.4445M29.9745 1V2.11111M29.9745 2.11111H38L35.5478 4.55556L38 7H29.9745M29.9745 2.11111V7M29.9745 7V8.77778M20.6115 17.8889C20.4297 18.0701 20.2403 19.4128 20.0785 21M16.5987 30.978L19.7197 25.4445C20.1126 24.0193 20.3261 22.1967 20.0785 21M23.0637 23.2222L23.5096 20.5556M23.0637 23.2222L23.9554 23.6667C25.0291 24.7744 24.9843 25.8446 24.1783 27.4445M23.9554 17.8889C23.1592 19.8554 22.2929 20.5124 20.0785 21M23.9554 17.8889L23.5096 20.5556M23.9554 17.8889V15.2222L29.9745 11.4445M23.5096 20.5556C24.4853 20.6469 25.5159 20.7778 26.8535 22.7441C28.1911 24.7104 26.9453 25.6532 26.4076 27.666M21.0573 16.1111L21.949 13.2222M21.949 13.2222L24.3567 11.8889M21.949 13.2222C20.5875 12.8203 19.6037 12.0627 19.7197 10.7778C19.8369 9.48128 20.5711 8.79512 22.3949 8.77778C23.8917 8.97043 24.1966 9.82322 24.3567 11.8889M29.9745 8.77778C31.2871 8.86468 31.1852 9.5216 29.9745 11.4445M29.9745 8.77778L24.3567 11.8889" stroke="#E30613" stroke-width="1.5"/>
</g>
</svg>
