<svg width="199" height="197" viewBox="0 0 199 197" fill="none" xmlns="http://www.w3.org/2000/svg">
<g id="&#208;&#160;&#208;&#181;&#209;&#129;&#209;&#131;&#209;&#128;&#209;&#129; 1 1">
<g id="&#208;&#161;&#208;&#187;&#208;&#190;&#208;&#185; 2">
<g id="Illustration">
<g id="Delivery point">
<path id="Vector" d="M48.2093 52.784L47.7161 50.0928L44.7124 49.9679C44.489 49.3719 44.2154 48.7957 43.8947 48.2455L45.701 45.8578L43.9196 43.7694L41.2555 45.157C40.7614 44.7524 40.2343 44.3894 39.6796 44.0719L40.0441 41.1018L37.4482 40.1793L35.8398 42.7026C35.2081 42.5987 34.5688 42.548 33.9285 42.5508L32.7528 39.7971L30.0487 40.288L29.9232 43.2753C29.3246 43.4977 28.7457 43.7696 28.1926 44.0881L25.7936 42.2914L23.6876 44.059L25.0808 46.7104C24.6751 47.2023 24.3108 47.7265 23.9916 48.2778L21.0063 47.915L20.0793 50.4986L22.6157 52.0994C22.5105 52.7283 22.4591 53.365 22.4621 54.0026L19.6953 55.1728L20.1885 57.8641L23.1922 57.9879C23.4161 58.5837 23.6896 59.1598 24.0099 59.7103L22.2047 62.0979L23.9851 64.1864L26.6502 62.7998C27.1456 63.2058 27.6742 63.5698 28.2305 63.8882L27.866 66.8593L30.4619 67.7808L32.0703 65.2575C32.7019 65.3622 33.3412 65.4133 33.9815 65.4103L35.1529 68.163L37.857 67.6721L37.9825 64.6826C38.5813 64.4606 39.1602 64.1888 39.7131 63.8699L42.1197 65.6665L44.2181 63.8936L42.8239 61.2421C43.2302 60.7505 43.5949 60.2263 43.9142 59.6747L46.8984 60.0375L47.8253 57.4539L45.29 55.8532C45.3943 55.2245 45.4453 54.5882 45.4425 53.951L48.2093 52.784ZM35.2297 60.9138C33.8509 61.1638 32.4286 61.0012 31.1427 60.4467C29.8567 59.8921 28.7649 58.9705 28.0052 57.7983C27.2455 56.6262 26.8522 55.2562 26.8749 53.8615C26.8976 52.4669 27.3354 51.1102 28.1328 49.9632C28.9303 48.8162 30.0515 47.9302 31.3549 47.4175C32.6582 46.9047 34.0851 46.7881 35.455 47.0824C36.8249 47.3768 38.0764 48.0688 39.0511 49.0711C40.0258 50.0733 40.6801 51.3407 40.931 52.713C41.0979 53.6244 41.0826 54.5597 40.886 55.4652C40.6894 56.3708 40.3155 57.2289 39.7855 57.9906C39.2555 58.7522 38.5799 59.4024 37.7972 59.904C37.0146 60.4056 36.1403 60.7487 35.2243 60.9138H35.2297Z" fill="#E30613"/>
<path id="Vector_2" d="M95.2388 29.875L94.3951 25.2633L89.2552 25.048C88.8732 24.026 88.4053 23.0378 87.8566 22.094L90.9458 18.0033L87.8977 14.4304L83.3386 16.7987C82.4934 16.1071 81.5918 15.4867 80.6432 14.9439L81.2673 9.86066L76.8326 8.28897L74.0809 12.6111C73 12.4326 71.9058 12.3454 70.8101 12.3506L68.7972 7.64307L64.1634 8.48274L63.9471 13.5983C62.9198 13.9783 61.9266 14.4439 60.978 14.9902L56.8732 11.9157L53.2822 14.9482L55.6618 19.4868C54.9668 20.3278 54.3431 21.2247 53.7971 22.1683L48.6896 21.5483L47.1039 25.9619L51.4424 28.7005C51.2635 29.7764 51.1759 30.8654 51.1806 31.9559L46.4463 33.9593L47.291 38.571L52.4299 38.7863C52.8121 39.8085 53.2799 40.797 53.8284 41.7413L50.7393 45.8266L53.7873 49.4006L58.3464 47.0323C59.1948 47.7192 60.0989 48.3349 61.0494 48.8731L60.4253 53.9564L64.86 55.5345L67.6128 51.2199C68.6938 51.398 69.7879 51.4852 70.8836 51.4804L72.902 56.1933L77.5357 55.3526L77.752 50.2371C78.779 49.8573 79.7719 49.3917 80.72 48.8451L84.8302 51.9207L88.4201 48.8871L86.0232 44.3518C86.7186 43.5107 87.3424 42.6134 87.888 41.6692L92.9955 42.2903L94.5811 37.8766L90.2427 35.1369C90.4222 34.0611 90.5097 32.9721 90.5045 31.8816L95.2388 29.875ZM73.0199 43.7866C70.6608 44.2143 68.2273 43.9361 66.0271 42.9872C63.8269 42.0384 61.9589 40.4615 60.6591 38.4561C59.3593 36.4506 58.6863 34.1065 58.725 31.7204C58.7638 29.3342 59.5126 27.013 60.8768 25.0504C62.241 23.0878 64.1594 21.5719 66.3892 20.6943C68.6191 19.8168 71.0603 19.617 73.4043 20.1203C75.7482 20.6235 77.8895 21.8072 79.5575 23.5217C81.2255 25.2362 82.3452 27.4045 82.7751 29.7523C83.0607 31.3113 83.0349 32.9111 82.6992 34.4602C82.3634 36.0093 81.7244 37.4774 80.8185 38.7806C79.9126 40.0839 78.7576 41.1968 77.4195 42.0557C76.0814 42.9147 74.5864 43.5028 73.0199 43.7866Z" fill="#E30613"/>
<path id="Vector_3" d="M83.4596 197C78.8776 196.997 74.3102 196.486 69.8418 195.477C69.7821 195.46 69.7313 195.42 69.6997 195.367C69.6682 195.314 69.6583 195.25 69.6721 195.19C69.686 195.13 69.7224 195.077 69.7741 195.043C69.8258 195.008 69.8887 194.995 69.95 195.005C78.8133 197.015 88.0165 197.021 96.8826 195.024C96.9137 195.016 96.9458 195.016 96.9772 195.021C97.0086 195.026 97.0386 195.038 97.0656 195.054C97.0926 195.071 97.1159 195.093 97.1344 195.119C97.1528 195.145 97.166 195.174 97.1731 195.205C97.1802 195.236 97.1811 195.268 97.1758 195.299C97.1705 195.33 97.159 195.36 97.1421 195.387C97.1252 195.414 97.1031 195.437 97.0771 195.455C97.0512 195.474 97.0218 195.487 96.9908 195.494C92.5502 196.492 88.012 196.997 83.4596 197Z" fill="#E30613"/>
<path id="Vector_4" d="M82.6197 192.114C64.7089 192.114 47.5196 185.001 47.313 184.915C47.2537 184.89 47.2069 184.843 47.1828 184.783C47.1586 184.724 47.1592 184.658 47.1843 184.599C47.2094 184.54 47.257 184.493 47.3166 184.469C47.3762 184.445 47.443 184.446 47.5023 184.471C47.7489 184.578 72.488 194.805 93.45 190.63C93.4817 190.623 93.5145 190.622 93.5466 190.627C93.5786 190.633 93.6093 190.644 93.6366 190.662C93.664 190.679 93.6876 190.702 93.7059 190.729C93.7243 190.756 93.737 190.786 93.7434 190.818C93.7498 190.849 93.7497 190.882 93.7431 190.914C93.7365 190.945 93.7236 190.975 93.7051 191.002C93.6866 191.029 93.663 191.051 93.6355 191.069C93.608 191.086 93.5773 191.098 93.5452 191.103C89.9661 191.817 86.2767 192.114 82.6197 192.114Z" fill="#E30613"/>
<path id="Vector_5" d="M23.7857 76.7546C23.2362 76.7525 22.6995 76.5899 22.2421 76.287C21.7846 75.9841 21.4266 75.5541 21.2125 75.0505C20.9129 74.3622 20.8956 73.5845 21.1644 72.8837C21.4333 72.1829 21.9668 71.6145 22.6511 71.3C22.9851 71.1496 23.346 71.0672 23.7125 71.0578C24.079 71.0484 24.4437 71.112 24.7851 71.2451C25.1353 71.3804 25.4546 71.5841 25.7244 71.8442C25.9941 72.1044 26.2088 72.4157 26.3557 72.7597C26.6557 73.448 26.6732 74.2258 26.4046 74.9269C26.136 75.6279 25.6025 76.1966 24.9182 76.5113C24.5621 76.6709 24.1762 76.7538 23.7857 76.7546ZM23.7857 71.54C23.4638 71.5402 23.1456 71.6084 22.8522 71.7403C22.2833 72.0027 21.8403 72.4763 21.6179 73.0598C21.3955 73.6433 21.4115 74.2902 21.6624 74.8621C21.7836 75.1471 21.9609 75.4051 22.1838 75.6209C22.4067 75.8366 22.6708 76.0058 22.9604 76.1184C23.2422 76.2279 23.5431 76.2804 23.8454 76.2726C24.1478 76.2648 24.4456 76.197 24.7213 76.0732C25.29 75.8106 25.7329 75.3369 25.9552 74.7535C26.1776 74.1701 26.1617 73.5233 25.9111 72.9513C25.79 72.6663 25.6127 72.4083 25.3898 72.1925C25.1669 71.9767 24.9028 71.8076 24.6131 71.6951C24.3492 71.5902 24.0677 71.5358 23.7835 71.5347L23.7857 71.54Z" fill="#E30613"/>
<path id="Vector_6" d="M98.193 6.77441C98.161 6.7745 98.1294 6.76827 98.0998 6.75607C98.0703 6.74387 98.0435 6.72596 98.021 6.70336L96.9664 5.65485C96.9209 5.60959 96.8954 5.54822 96.8954 5.48422C96.8954 5.42022 96.9209 5.35885 96.9664 5.3136C97.0119 5.26834 97.0735 5.24292 97.1378 5.24292C97.2021 5.24292 97.2638 5.26834 97.3093 5.3136L98.3639 6.36319C98.3976 6.39691 98.4205 6.4398 98.4298 6.48646C98.4391 6.53313 98.4343 6.58148 98.416 6.62544C98.3978 6.6694 98.3668 6.707 98.3272 6.7335C98.2875 6.76001 98.2408 6.77424 98.193 6.77441Z" fill="#E30613"/>
<path id="Vector_7" d="M101.883 10.442C101.852 10.442 101.82 10.4357 101.791 10.4235C101.762 10.4113 101.735 10.3934 101.713 10.371L100.658 9.32245C100.635 9.30004 100.618 9.27344 100.605 9.24417C100.593 9.21489 100.587 9.18351 100.587 9.15182C100.587 9.12014 100.593 9.08876 100.605 9.05948C100.618 9.03021 100.635 9.00361 100.658 8.9812C100.68 8.95879 100.707 8.94102 100.737 8.92889C100.766 8.91676 100.798 8.91052 100.829 8.91052C100.861 8.91052 100.893 8.91676 100.922 8.92889C100.952 8.94102 100.978 8.95879 101.001 8.9812L102.055 10.0297C102.089 10.0636 102.112 10.1067 102.121 10.1535C102.13 10.2002 102.125 10.2487 102.107 10.2927C102.089 10.3367 102.058 10.3743 102.018 10.4009C101.978 10.4275 101.931 10.4418 101.883 10.442Z" fill="#E30613"/>
<path id="Vector_8" d="M97.1387 10.442C97.0908 10.4418 97.0441 10.4275 97.0043 10.4009C96.9646 10.3743 96.9336 10.3367 96.9152 10.2927C96.8969 10.2487 96.8919 10.2002 96.9011 10.1535C96.9103 10.1067 96.9331 10.0636 96.9667 10.0297L98.0213 8.9812C98.0668 8.93595 98.1284 8.91052 98.1927 8.91052C98.257 8.91052 98.3187 8.93595 98.3642 8.9812C98.4096 9.02645 98.4352 9.08783 98.4352 9.15182C98.4352 9.21582 98.4096 9.2772 98.3642 9.32245L97.3096 10.371C97.2872 10.3934 97.2606 10.4113 97.2313 10.4235C97.2019 10.4357 97.1705 10.442 97.1387 10.442Z" fill="#E30613"/>
<path id="Vector_9" d="M100.828 6.77441C100.781 6.77424 100.734 6.76001 100.694 6.7335C100.654 6.707 100.624 6.6694 100.605 6.62544C100.587 6.58148 100.582 6.53313 100.592 6.48646C100.601 6.4398 100.624 6.39691 100.657 6.36319L101.712 5.3136C101.758 5.26834 101.819 5.24292 101.883 5.24292C101.948 5.24292 102.009 5.26834 102.055 5.3136C102.1 5.35885 102.126 5.42022 102.126 5.48422C102.126 5.54822 102.1 5.60959 102.055 5.65485L101 6.70336C100.978 6.72596 100.951 6.74387 100.922 6.75607C100.892 6.76827 100.86 6.7745 100.828 6.77441Z" fill="#E30613"/>
<path id="Vector_10" d="M189.802 152.141L50.9618 151.88C49.5103 151.88 48.3605 150.577 48.4524 149.035L54.7302 44.6877C54.8146 43.2785 55.9135 42.1816 57.2396 42.1816L196.276 41.9297C197.728 41.9297 199.088 43.4863 198.991 45.0279L192.709 149.375C192.629 150.783 191.124 152.141 189.802 152.141Z" fill="#E30613"/>
<path id="Vector_11" d="M185.962 152.141H46.7187C45.2671 152.141 44.1173 150.836 44.2104 149.295L50.4925 44.3992C50.5768 42.9911 51.6747 41.8942 53.0008 41.8942H192.244C193.695 41.8942 194.845 43.1989 194.753 44.7404L188.471 149.634C188.387 151.044 187.289 152.141 185.962 152.141Z" fill="#E6E7E9"/>
<path id="Vector_12" d="M116.412 152.382H94.1739C94.1097 152.382 94.048 152.357 94.0026 152.312C93.9572 152.266 93.9316 152.205 93.9316 152.141C93.9316 152.077 93.9572 152.016 94.0026 151.971C94.048 151.925 94.1097 151.9 94.1739 151.9H116.412C116.477 151.9 116.538 151.925 116.584 151.971C116.629 152.016 116.655 152.077 116.655 152.141C116.655 152.205 116.629 152.266 116.584 152.312C116.538 152.357 116.477 152.382 116.412 152.382Z" fill="#E30613"/>
<path id="Vector_13" d="M178.079 152.382H126.621C126.557 152.382 126.495 152.357 126.45 152.312C126.404 152.267 126.379 152.205 126.379 152.141C126.379 152.077 126.404 152.016 126.45 151.971C126.495 151.926 126.557 151.9 126.621 151.9H178.079C178.143 151.9 178.205 151.926 178.25 151.971C178.296 152.016 178.321 152.077 178.321 152.141C178.321 152.205 178.296 152.267 178.25 152.312C178.205 152.357 178.143 152.382 178.079 152.382Z" fill="#E30613"/>
<path id="Vector_14" d="M188.936 146.74H188.922C188.858 146.737 188.798 146.708 188.755 146.66C188.712 146.613 188.69 146.55 188.694 146.486L194.511 44.7276C194.533 44.3834 194.485 44.0383 194.369 43.7131C194.254 43.388 194.073 43.0896 193.838 42.8362C193.635 42.6167 193.388 42.4412 193.114 42.3208C192.84 42.2004 192.543 42.1377 192.244 42.1364L159.648 42.1881C159.583 42.1881 159.522 42.1627 159.476 42.1175C159.431 42.0723 159.405 42.0109 159.405 41.947C159.405 41.883 159.431 41.8217 159.476 41.7765C159.522 41.7313 159.583 41.7058 159.648 41.7058L192.245 41.6542C192.611 41.6551 192.972 41.7312 193.307 41.8778C193.642 42.0243 193.943 42.238 194.192 42.5057C194.472 42.8067 194.688 43.1615 194.826 43.5483C194.964 43.9351 195.022 44.3459 194.995 44.7556L189.177 146.512C189.174 146.573 189.147 146.631 189.102 146.674C189.057 146.716 188.998 146.74 188.936 146.74Z" fill="#E30613"/>
<path id="Vector_15" d="M47.565 93.5276H47.5498C47.4857 93.5237 47.4258 93.4947 47.3832 93.4468C47.3406 93.399 47.3189 93.3363 47.3227 93.2725L50.2507 44.3852C50.3426 42.8534 51.5486 41.6531 53.0013 41.6531H131.403C131.468 41.6531 131.529 41.6785 131.575 41.7237C131.62 41.7689 131.646 41.8303 131.646 41.8942C131.646 41.9582 131.62 42.0195 131.575 42.0647C131.529 42.1099 131.468 42.1354 131.403 42.1354H53.0002C51.8104 42.1354 50.8099 43.1365 50.7288 44.4143L47.8084 93.3015C47.8047 93.3631 47.7774 93.421 47.7321 93.463C47.6868 93.5051 47.627 93.5283 47.565 93.5276Z" fill="#E30613"/>
<path id="Vector_16" d="M183.445 148.071H49.8936C48.5491 148.071 47.4848 146.863 47.5702 145.434L53.3883 48.2843C53.4662 46.9796 54.484 45.9645 55.7117 45.9645H189.264C190.609 45.9645 191.673 47.1723 191.588 48.5998L185.769 145.75C185.692 147.05 184.674 148.071 183.445 148.071Z" fill="#E6E7E9"/>
<path id="Vector_17" d="M183.445 148.312H49.8936C49.5523 148.311 49.2148 148.24 48.9023 148.103C48.5898 147.967 48.3091 147.767 48.0776 147.517C47.8163 147.237 47.6151 146.906 47.4862 146.546C47.3574 146.185 47.3036 145.802 47.328 145.42L53.1461 48.2704C53.2316 46.8419 54.3586 45.7223 55.7117 45.7223H189.264C189.606 45.7237 189.943 45.7949 190.255 45.9316C190.568 46.0682 190.849 46.2674 191.08 46.5167C191.341 46.7975 191.543 47.1282 191.671 47.4887C191.8 47.8492 191.854 48.2319 191.83 48.6138L186.012 145.765C185.926 147.192 184.799 148.312 183.445 148.312ZM55.7117 46.2056C54.615 46.2056 53.701 47.125 53.6307 48.2994L47.8083 145.45C47.7874 145.766 47.8314 146.083 47.9375 146.381C48.0437 146.68 48.2099 146.954 48.4259 147.187C48.612 147.389 48.838 147.551 49.0899 147.662C49.3417 147.773 49.6138 147.831 49.8893 147.833H183.445C184.542 147.833 185.456 146.914 185.526 145.739L191.341 48.5858C191.362 48.2696 191.318 47.9525 191.212 47.6538C191.106 47.3551 190.939 47.0811 190.723 46.8483C190.537 46.6462 190.311 46.4845 190.059 46.3734C189.808 46.2622 189.535 46.204 189.26 46.2024L55.7117 46.2056Z" fill="#E30613"/>
<path id="Vector_18" d="M162.071 65.4881H190.575L190.85 60.9291H162.346L163.249 45.9657H155.786L154.882 60.9291H98.6636L99.5408 45.9657H94.84L94.1175 58.2992C94.0181 59.9896 93.3831 61.6053 92.3036 62.9142L78.2921 79.8938L80.3072 45.9668H72.8385L70.6753 82.4398H51.3378L50.9149 89.5964H68.87C69.0472 89.596 69.2226 89.6318 69.3854 89.7015C69.5482 89.7713 69.6949 89.8734 69.8165 90.0017C69.9381 90.13 70.032 90.2817 70.0925 90.4475C70.1529 90.6133 70.1786 90.7896 70.168 90.9657L69.1945 107.34C69.1076 108.806 69.4697 110.264 70.2329 111.52L72.7455 115.662H62.0287C61.3415 115.662 60.6803 115.923 60.1804 116.392C59.6805 116.862 59.3798 117.503 59.3398 118.186L58.6053 130.704H48.451L48.1416 135.264H58.3382L57.5875 148.074H62.2883L63.0454 135.264H84.6262L92.3901 148.074H99.8588L92.0949 135.264H141.467L130.897 148.074H138.361L147.896 136.518C148.22 136.126 148.626 135.81 149.087 135.594C149.548 135.377 150.051 135.265 150.56 135.265H186.377L186.666 130.705H152.698L157.208 125.238C158.075 124.188 158.586 122.892 158.668 121.535L162.071 65.4881ZM154.602 65.4881L153.101 90.3424H96.9395L98.3965 65.4881H154.602ZM77.8476 111.762C76.9882 110.346 76.5805 108.705 76.6783 107.054L77.5783 91.9119C77.6681 90.4051 78.2362 88.9656 79.2007 87.8008L93.3939 70.6424L90.9343 112.594C90.8857 113.423 90.5205 114.202 89.9134 114.772C89.3064 115.342 88.5034 115.66 87.6688 115.66H80.2131L77.8476 111.762ZM63.3072 130.702L63.8415 121.574C63.863 121.208 64.0244 120.863 64.2927 120.612C64.5609 120.36 64.9157 120.22 65.2844 120.22H75.5091L81.8626 130.702H63.3072ZM87.8603 128.271L82.9799 120.22H90.6325C91.8714 120.219 93.063 119.747 93.962 118.898C94.8611 118.05 95.3991 116.891 95.4652 115.66H95.4587L96.6756 94.9024H152.83L151.258 120.918C151.153 122.658 150.498 124.32 149.387 125.667L145.232 130.702H92.1836C91.3131 130.701 90.4575 130.478 89.6995 130.052C88.9415 129.626 88.3069 129.012 87.857 128.271H87.8603Z" fill="#E6E7E9"/>
<path id="Vector_19" d="M138.365 148.312H130.901C130.855 148.312 130.81 148.3 130.771 148.275C130.732 148.251 130.701 148.216 130.681 148.175C130.662 148.133 130.654 148.087 130.66 148.041C130.666 147.996 130.685 147.953 130.714 147.918L140.958 135.503H92.5239L100.066 147.946C100.088 147.983 100.101 148.024 100.101 148.067C100.102 148.11 100.091 148.152 100.07 148.189C100.049 148.227 100.018 148.258 99.9809 148.279C99.9437 148.301 99.9015 148.312 99.8585 148.312H92.3898C92.3481 148.312 92.3071 148.301 92.2708 148.281C92.2344 148.26 92.2039 148.231 92.1821 148.196L84.4896 135.503H63.2679L62.5302 148.085C62.5264 148.146 62.4992 148.204 62.4542 148.246C62.4092 148.288 62.3498 148.312 62.288 148.312H57.5872C57.5541 148.312 57.5214 148.306 57.491 148.293C57.4607 148.28 57.4333 148.261 57.4107 148.237C57.388 148.213 57.3706 148.184 57.3595 148.154C57.3483 148.123 57.3437 148.09 57.346 148.057L58.0815 135.503H48.1413C48.108 135.503 48.0751 135.496 48.0446 135.483C48.0141 135.47 47.9867 135.451 47.9639 135.426C47.9412 135.402 47.9237 135.374 47.9126 135.343C47.9014 135.311 47.8968 135.278 47.899 135.245L48.2094 130.685C48.2133 130.624 48.2404 130.567 48.2852 130.525C48.33 130.483 48.3892 130.46 48.4506 130.46H58.3768L59.0971 118.17C59.1415 117.426 59.4696 116.727 60.0144 116.215C60.5591 115.704 61.2795 115.419 62.0284 115.418H72.3147L70.0238 111.643C69.2342 110.346 68.8603 108.841 68.9519 107.327L69.9254 90.9527C69.9338 90.8095 69.9127 90.6662 69.8634 90.5314C69.8142 90.3966 69.7378 90.2733 69.6389 90.169C69.5401 90.0647 69.4209 89.9815 69.2886 89.9247C69.1563 89.8679 69.0138 89.8385 68.8697 89.8385H50.9146C50.8816 89.8382 50.8491 89.8313 50.8189 89.8183C50.7887 89.8052 50.7614 89.7861 50.7388 89.7623C50.7162 89.7385 50.6986 89.7103 50.6872 89.6796C50.6757 89.6488 50.6707 89.6161 50.6723 89.5833L51.0963 82.4268C51.0999 82.3654 51.1268 82.3078 51.1716 82.2656C51.2165 82.2234 51.2758 82.1998 51.3375 82.1996H70.4435L72.5959 45.9527C72.5998 45.8913 72.6269 45.8336 72.6719 45.7914C72.7169 45.7493 72.7764 45.7257 72.8382 45.7255H80.3015C80.3346 45.7256 80.3673 45.7324 80.3976 45.7455C80.4279 45.7587 80.4552 45.7779 80.4778 45.802C80.5007 45.8257 80.5185 45.854 80.5298 45.8849C80.5412 45.9159 80.5459 45.9489 80.5438 45.9818L78.573 79.1703L92.1162 62.7601C93.1662 61.4929 93.7824 59.9251 93.8749 58.2851L94.5985 45.9505C94.6021 45.8892 94.629 45.8316 94.6739 45.7894C94.7187 45.7472 94.778 45.7236 94.8397 45.7234H99.5405C99.5735 45.7236 99.6062 45.7305 99.6365 45.7437C99.6667 45.7569 99.694 45.776 99.7167 45.7999C99.7393 45.8239 99.7569 45.8521 99.7682 45.883C99.7796 45.9139 99.7845 45.9468 99.7828 45.9796L98.9175 60.6879H154.646L155.536 45.9505C155.539 45.8891 155.567 45.8315 155.612 45.7893C155.657 45.7471 155.716 45.7235 155.778 45.7234H163.241C163.274 45.7235 163.307 45.7304 163.338 45.7435C163.368 45.7566 163.396 45.7758 163.419 45.7998C163.441 45.8238 163.459 45.8521 163.47 45.883C163.481 45.9139 163.486 45.9468 163.483 45.9796L162.595 60.6879H190.842C190.875 60.6881 190.908 60.695 190.938 60.7082C190.969 60.7213 190.996 60.7404 191.018 60.7644C191.041 60.7883 191.059 60.8166 191.07 60.8475C191.081 60.8784 191.086 60.9112 191.085 60.9441L190.81 65.5041C190.806 65.5654 190.779 65.623 190.734 65.665C190.689 65.707 190.629 65.7303 190.568 65.7302H162.298L158.91 121.548C158.827 122.956 158.297 124.301 157.396 125.389L153.21 130.461H186.67C186.704 130.462 186.736 130.468 186.767 130.482C186.797 130.495 186.825 130.514 186.848 130.538C186.87 130.562 186.888 130.59 186.899 130.621C186.91 130.652 186.915 130.685 186.913 130.718L186.623 135.278C186.619 135.339 186.591 135.396 186.546 135.438C186.501 135.48 186.442 135.504 186.381 135.504H150.563C150.089 135.503 149.621 135.607 149.193 135.809C148.764 136.01 148.386 136.304 148.086 136.67L138.557 148.224C138.534 148.252 138.505 148.275 138.471 148.29C138.438 148.305 138.401 148.313 138.365 148.312ZM131.41 147.83H138.251L147.713 136.362C148.059 135.942 148.494 135.603 148.987 135.371C149.48 135.139 150.019 135.02 150.564 135.02H186.15L186.41 130.943H152.697C152.651 130.943 152.606 130.93 152.567 130.906C152.528 130.882 152.497 130.847 152.477 130.805C152.458 130.764 152.45 130.718 152.456 130.672C152.462 130.627 152.481 130.584 152.51 130.549L157.021 125.081C157.858 124.072 158.351 122.824 158.427 121.518L161.83 65.474C161.833 65.4126 161.861 65.3549 161.906 65.3127C161.951 65.2706 162.01 65.247 162.072 65.2468H190.348L190.593 61.1701H162.346C162.312 61.1701 162.28 61.1633 162.249 61.1502C162.219 61.137 162.192 61.1178 162.169 61.0937C162.147 61.0697 162.129 61.0414 162.118 61.0105C162.107 60.9796 162.102 60.9468 162.103 60.9139L162.992 46.2057H156.009L155.119 60.943C155.115 61.0044 155.088 61.062 155.043 61.1042C154.998 61.1464 154.939 61.17 154.877 61.1701H98.6633C98.6302 61.1699 98.5976 61.1629 98.5673 61.1498C98.537 61.1367 98.5097 61.1176 98.487 61.0937C98.4644 61.0698 98.447 61.0414 98.4358 61.0105C98.4246 60.9796 98.42 60.9467 98.4221 60.9139L99.2874 46.2057H95.069L94.3584 58.312C94.2602 60.0542 93.6058 61.7196 92.4904 63.0659L78.4789 80.0466C78.4469 80.0875 78.4025 80.117 78.3523 80.1308C78.3022 80.1446 78.2488 80.1419 78.2003 80.1232C78.1517 80.1045 78.1105 80.0707 78.0828 80.0268C78.0551 79.983 78.0423 79.9314 78.0463 79.8798L80.0462 46.2057H73.0664L70.914 82.4515C70.9104 82.513 70.8833 82.5708 70.8382 82.613C70.7932 82.6553 70.7336 82.6788 70.6717 82.6787H51.5668L51.172 89.353H68.8686C69.0787 89.3531 69.2865 89.3959 69.4794 89.4787C69.6722 89.5616 69.846 89.6828 69.9901 89.8349C70.1343 89.987 70.2456 90.1668 70.3174 90.3632C70.3893 90.5597 70.42 90.7687 70.4078 90.9774L69.4343 107.352C69.3481 108.769 69.6978 110.179 70.437 111.393L72.9507 115.535C72.9729 115.571 72.985 115.613 72.9857 115.656C72.9864 115.698 72.9757 115.74 72.9547 115.778C72.9337 115.815 72.9031 115.846 72.8661 115.867C72.8291 115.889 72.787 115.9 72.7441 115.901H62.0284C61.4028 115.901 60.801 116.14 60.346 116.567C59.8911 116.994 59.6173 117.578 59.5806 118.2L58.8473 130.718C58.8437 130.779 58.8167 130.837 58.7719 130.879C58.7271 130.921 58.6678 130.945 58.6061 130.945H48.6734L48.3965 135.023H58.3335C58.3665 135.022 58.3992 135.029 58.4296 135.042C58.4599 135.055 58.4873 135.074 58.51 135.098C58.5327 135.122 58.5502 135.15 58.5615 135.181C58.5729 135.212 58.5777 135.245 58.5758 135.278L57.8403 147.832H62.0586L62.7963 135.25C62.7999 135.188 62.8269 135.131 62.8717 135.089C62.9165 135.046 62.9758 135.023 63.0375 135.023H84.6259C84.6676 135.022 84.7087 135.033 84.745 135.053C84.7814 135.074 84.8119 135.103 84.8335 135.139L92.5272 147.832H99.4291L91.8869 135.387C91.8645 135.351 91.8524 135.309 91.8517 135.266C91.851 135.224 91.8618 135.181 91.883 135.144C91.9041 135.107 91.9349 135.076 91.9721 135.055C92.0093 135.033 92.0516 135.022 92.0945 135.023H141.467C141.513 135.023 141.558 135.036 141.596 135.06C141.635 135.084 141.666 135.119 141.686 135.161C141.705 135.202 141.713 135.248 141.707 135.293C141.701 135.338 141.683 135.381 141.654 135.417L131.41 147.83ZM145.229 130.943H92.1832C91.2716 130.94 90.376 130.704 89.5821 130.258C88.7882 129.812 88.1226 129.171 87.649 128.396L82.7687 120.343C82.7464 120.307 82.7343 120.265 82.7337 120.222C82.733 120.179 82.7438 120.137 82.765 120.1C82.7861 120.063 82.8168 120.032 82.854 120.01C82.8911 119.989 82.9334 119.977 82.9764 119.977H90.6289C91.7967 119.977 92.9207 119.535 93.7729 118.74C94.625 117.946 95.1414 116.858 95.2172 115.698C95.215 115.681 95.215 115.663 95.2172 115.645L96.434 94.8884C96.4374 94.827 96.4642 94.7692 96.5091 94.7269C96.554 94.6846 96.6135 94.6611 96.6752 94.6612H152.829C152.862 94.661 152.895 94.6676 152.925 94.6806C152.956 94.6936 152.983 94.7126 153.006 94.7366C153.028 94.7607 153.045 94.789 153.057 94.8199C153.068 94.8507 153.073 94.8835 153.072 94.9163L151.5 120.932C151.396 122.724 150.721 124.435 149.574 125.82L145.419 130.854C145.396 130.882 145.367 130.905 145.334 130.92C145.301 130.935 145.265 130.943 145.229 130.943ZM88.0644 128.144C88.4943 128.848 89.0989 129.431 89.8201 129.836C90.5413 130.242 91.355 130.456 92.1832 130.458H145.114L149.196 125.506C150.278 124.2 150.914 122.585 151.013 120.896L152.569 95.136H96.9013L95.7007 115.616C95.7029 115.634 95.7029 115.652 95.7007 115.669C95.6318 116.962 95.0675 118.179 94.1241 119.071C93.1806 119.962 91.9297 120.459 90.6289 120.461H83.4058L88.0644 128.144ZM81.8623 130.943H63.3068C63.2738 130.943 63.2411 130.936 63.2108 130.923C63.1804 130.91 63.153 130.891 63.1304 130.867C63.1077 130.843 63.0901 130.815 63.0788 130.784C63.0675 130.753 63.0626 130.72 63.0646 130.687L63.6054 121.56C63.6307 121.132 63.8191 120.73 64.1321 120.436C64.4451 120.142 64.8591 119.978 65.2895 119.977H75.5088C75.5505 119.978 75.5916 119.989 75.6279 120.009C75.6642 120.03 75.6947 120.059 75.7164 120.095L82.07 130.58C82.0922 130.616 82.1043 130.658 82.1049 130.701C82.1056 130.744 82.0948 130.786 82.0737 130.823C82.0525 130.861 82.0218 130.892 81.9846 130.913C81.9475 130.935 81.9053 130.946 81.8623 130.946V130.943ZM63.5632 130.46H81.4329L75.3757 120.461H65.2841C64.9773 120.461 64.6823 120.578 64.4592 120.787C64.236 120.997 64.1017 121.283 64.0835 121.588L63.5632 130.46ZM87.6685 115.901H80.2128C80.1711 115.9 80.1301 115.89 80.0938 115.869C80.0574 115.849 80.0269 115.82 80.0051 115.784L77.6396 111.886C76.7531 110.431 76.3336 108.741 76.4368 107.042L77.3367 91.8978C77.4257 90.3396 78.0127 88.8505 79.0122 87.6478L93.2075 70.4883C93.2396 70.4474 93.2841 70.4178 93.3344 70.404C93.3847 70.3902 93.4381 70.3929 93.4867 70.4118C93.5354 70.4307 93.5766 70.4647 93.6042 70.5087C93.6319 70.5528 93.6445 70.6045 93.6402 70.6563L91.1816 112.608C91.1284 113.499 90.735 114.336 90.082 114.948C89.4289 115.56 88.5656 115.901 87.6685 115.901ZM80.3501 115.418H87.6685C88.4423 115.42 89.1872 115.126 89.7504 114.598C90.3136 114.07 90.6523 113.347 90.6971 112.579L93.108 71.3721L79.3853 87.9503C78.4514 89.0741 77.9027 90.4655 77.8191 91.9215L76.9203 107.069C76.8238 108.67 77.2196 110.262 78.0549 111.633L80.3501 115.418ZM153.101 90.5834H96.9392C96.9061 90.5836 96.8734 90.5771 96.843 90.5641C96.8127 90.5512 96.7853 90.5322 96.7627 90.5082C96.74 90.4843 96.7226 90.4559 96.7115 90.425C96.7003 90.394 96.6957 90.3611 96.698 90.3283L98.1549 65.474C98.1585 65.4127 98.1855 65.355 98.2303 65.3128C98.2751 65.2706 98.3344 65.247 98.3961 65.2468H154.602C154.635 65.2469 154.668 65.2537 154.698 65.2668C154.729 65.28 154.756 65.2992 154.778 65.3233C154.801 65.3473 154.818 65.3756 154.83 65.4065C154.841 65.4374 154.846 65.4702 154.844 65.5031L153.343 90.3563C153.34 90.4178 153.312 90.4756 153.267 90.5178C153.222 90.56 153.163 90.5835 153.101 90.5834ZM97.1966 90.1033H152.873L154.349 65.7291H98.6254L97.1966 90.1033Z" fill="#E30613"/>
<path id="Vector_20" d="M89.8247 133.218C88.8533 133.221 87.9061 132.916 87.1207 132.347C87.0686 132.31 87.0337 132.253 87.0237 132.19C87.0136 132.126 87.0293 132.062 87.0671 132.01C87.105 131.958 87.162 131.923 87.2256 131.913C87.2892 131.903 87.3541 131.919 87.4062 131.957C88.1075 132.466 88.9536 132.739 89.8215 132.736H89.9956C90.0599 132.736 90.1215 132.761 90.167 132.807C90.2124 132.852 90.2379 132.913 90.2379 132.977C90.2379 133.041 90.2124 133.103 90.167 133.148C90.1215 133.193 90.0599 133.218 89.9956 133.218H89.8247ZM92.9074 133.218C92.8431 133.218 92.7815 133.193 92.7361 133.148C92.6906 133.103 92.6651 133.041 92.6651 132.977C92.6651 132.913 92.6906 132.852 92.7361 132.807C92.7815 132.761 92.8431 132.736 92.9074 132.736H95.8159C95.8775 132.74 95.9352 132.767 95.9774 132.812C96.0196 132.857 96.0431 132.916 96.0431 132.978C96.0431 133.039 96.0196 133.098 95.9774 133.143C95.9352 133.188 95.8775 133.215 95.8159 133.219H92.9074V133.218ZM98.7233 133.209C98.6591 133.209 98.5975 133.183 98.552 133.138C98.5066 133.093 98.4811 133.031 98.4811 132.968C98.4811 132.904 98.5066 132.842 98.552 132.797C98.5975 132.752 98.6591 132.726 98.7233 132.726H101.631C101.695 132.726 101.757 132.752 101.802 132.797C101.848 132.842 101.873 132.904 101.873 132.968C101.873 133.031 101.848 133.093 101.802 133.138C101.757 133.183 101.695 133.209 101.631 133.209H98.7223H98.7233ZM104.539 133.2C104.475 133.2 104.413 133.175 104.368 133.129C104.323 133.084 104.297 133.023 104.297 132.959C104.297 132.895 104.323 132.834 104.368 132.788C104.413 132.743 104.475 132.718 104.539 132.718H107.447C107.511 132.718 107.573 132.743 107.618 132.788C107.663 132.834 107.689 132.895 107.689 132.959C107.689 133.023 107.663 133.084 107.618 133.129C107.573 133.175 107.511 133.2 107.447 133.2H104.539ZM110.356 133.19C110.292 133.19 110.23 133.165 110.185 133.12C110.14 133.075 110.114 133.013 110.114 132.949C110.114 132.885 110.14 132.824 110.185 132.779C110.23 132.733 110.292 132.708 110.356 132.708H113.265C113.329 132.708 113.391 132.733 113.436 132.779C113.482 132.824 113.507 132.885 113.507 132.949C113.507 133.013 113.482 133.075 113.436 133.12C113.391 133.165 113.329 133.19 113.265 133.19H110.356ZM116.172 133.182C116.108 133.182 116.046 133.156 116.001 133.111C115.955 133.066 115.93 133.005 115.93 132.941C115.93 132.877 115.955 132.815 116.001 132.77C116.046 132.725 116.108 132.699 116.172 132.699L119.081 132.694C119.145 132.694 119.207 132.719 119.252 132.765C119.298 132.81 119.323 132.871 119.323 132.935C119.323 132.999 119.298 133.061 119.252 133.106C119.207 133.151 119.145 133.176 119.081 133.176L116.172 133.182ZM121.988 133.172C121.924 133.172 121.862 133.147 121.817 133.101C121.771 133.056 121.746 132.995 121.746 132.931C121.746 132.867 121.771 132.806 121.817 132.76C121.862 132.715 121.924 132.69 121.988 132.69H124.896C124.96 132.69 125.021 132.715 125.067 132.76C125.112 132.806 125.138 132.867 125.138 132.931C125.138 132.995 125.112 133.056 125.067 133.101C125.021 133.147 124.96 133.172 124.896 133.172H121.988ZM127.804 133.163C127.74 133.163 127.678 133.138 127.633 133.093C127.587 133.048 127.562 132.986 127.562 132.922C127.562 132.858 127.587 132.797 127.633 132.752C127.678 132.707 127.74 132.681 127.804 132.681H130.712C130.776 132.681 130.837 132.707 130.883 132.752C130.928 132.797 130.954 132.858 130.954 132.922C130.954 132.986 130.928 133.048 130.883 133.093C130.837 133.138 130.776 133.163 130.712 133.163H127.804ZM133.62 133.154C133.556 133.154 133.494 133.128 133.449 133.083C133.403 133.038 133.378 132.977 133.378 132.913C133.378 132.849 133.403 132.787 133.449 132.742C133.494 132.697 133.556 132.672 133.62 132.672H136.529C136.593 132.672 136.654 132.697 136.7 132.742C136.745 132.787 136.771 132.849 136.771 132.913C136.771 132.977 136.745 133.038 136.7 133.083C136.654 133.128 136.593 133.154 136.529 133.154H133.62ZM139.437 133.145C139.373 133.145 139.311 133.12 139.266 133.075C139.22 133.029 139.195 132.968 139.195 132.904C139.195 132.84 139.22 132.779 139.266 132.734C139.311 132.688 139.373 132.663 139.437 132.663H142.346C142.41 132.663 142.471 132.688 142.517 132.734C142.562 132.779 142.588 132.84 142.588 132.904C142.588 132.968 142.562 133.029 142.517 133.075C142.471 133.12 142.41 133.145 142.346 133.145H139.437ZM145.252 133.115C145.19 133.115 145.13 133.092 145.084 133.049C145.039 133.006 145.012 132.948 145.009 132.886C145.006 132.824 145.027 132.763 145.068 132.716C145.109 132.669 145.166 132.64 145.228 132.634C146.147 132.541 147.006 132.139 147.663 131.494C147.685 131.47 147.712 131.451 147.742 131.438C147.772 131.424 147.804 131.417 147.837 131.417C147.869 131.416 147.902 131.422 147.932 131.435C147.962 131.447 147.99 131.465 148.013 131.488C148.036 131.511 148.054 131.539 148.066 131.569C148.078 131.599 148.084 131.632 148.083 131.664C148.082 131.697 148.074 131.729 148.061 131.758C148.047 131.788 148.028 131.814 148.004 131.836C147.268 132.559 146.306 133.01 145.277 133.114L145.252 133.115ZM85.5025 130.131C85.4604 130.131 85.4191 130.12 85.3825 130.099C85.346 130.078 85.3154 130.048 85.2938 130.013L83.8087 127.524C83.7919 127.496 83.7807 127.466 83.7758 127.435C83.7709 127.403 83.7723 127.371 83.78 127.34C83.7877 127.309 83.8015 127.28 83.8206 127.254C83.8397 127.228 83.8638 127.207 83.8913 127.19C83.9189 127.174 83.9495 127.163 83.9813 127.159C84.0131 127.154 84.0454 127.156 84.0765 127.164C84.1075 127.172 84.1367 127.186 84.1622 127.206C84.1877 127.225 84.2091 127.249 84.2251 127.277L85.7102 129.766C85.7266 129.793 85.7374 129.823 85.7421 129.855C85.7467 129.886 85.7451 129.918 85.7372 129.949C85.7294 129.979 85.7155 130.008 85.6964 130.034C85.6773 130.059 85.6533 130.08 85.6258 130.096C85.5883 130.118 85.5456 130.128 85.5025 130.127V130.131ZM149.673 129.666C149.617 129.666 149.564 129.647 149.521 129.612C149.496 129.592 149.476 129.568 149.46 129.54C149.445 129.513 149.435 129.482 149.432 129.451C149.428 129.419 149.431 129.388 149.44 129.357C149.449 129.327 149.463 129.299 149.483 129.274L151.302 127.013C151.321 126.987 151.345 126.965 151.373 126.948C151.402 126.931 151.433 126.92 151.465 126.916C151.498 126.911 151.531 126.914 151.563 126.922C151.594 126.931 151.624 126.946 151.649 126.967C151.675 126.987 151.696 127.012 151.712 127.041C151.727 127.07 151.737 127.102 151.739 127.134C151.742 127.167 151.738 127.2 151.728 127.231C151.717 127.262 151.701 127.29 151.679 127.315L149.862 129.575C149.839 129.603 149.81 129.625 149.777 129.64C149.744 129.655 149.709 129.662 149.673 129.662V129.666ZM82.528 125.149C82.486 125.149 82.4447 125.138 82.4081 125.118C82.3715 125.097 82.3409 125.067 82.3193 125.032L80.8342 122.543C80.8174 122.515 80.8062 122.485 80.8013 122.454C80.7964 122.422 80.7978 122.39 80.8055 122.359C80.8132 122.328 80.827 122.299 80.8461 122.273C80.8652 122.247 80.8893 122.226 80.9169 122.209C80.9444 122.193 80.975 122.182 81.0068 122.178C81.0386 122.173 81.0709 122.175 81.102 122.183C81.133 122.191 81.1622 122.205 81.1877 122.225C81.2132 122.244 81.2346 122.268 81.2506 122.296L82.7444 124.785C82.7664 124.822 82.7784 124.863 82.7789 124.906C82.7794 124.948 82.7686 124.99 82.7474 125.027C82.7263 125.064 82.6956 125.095 82.6586 125.117C82.6216 125.138 82.5795 125.149 82.5367 125.149H82.528ZM153.24 125.096C153.197 125.096 153.154 125.085 153.117 125.063C153.079 125.041 153.049 125.01 153.028 124.972C153.007 124.934 152.996 124.892 152.997 124.848C152.999 124.805 153.011 124.763 153.034 124.727C153.54 123.925 153.946 123.065 154.244 122.166C154.252 122.134 154.267 122.105 154.288 122.08C154.308 122.054 154.334 122.033 154.363 122.017C154.392 122.002 154.423 121.993 154.456 121.99C154.489 121.987 154.522 121.991 154.553 122.001C154.584 122.011 154.613 122.028 154.637 122.049C154.662 122.071 154.682 122.097 154.696 122.127C154.71 122.156 154.718 122.188 154.719 122.221C154.72 122.254 154.715 122.286 154.703 122.317C154.394 123.253 153.971 124.148 153.445 124.983C153.424 125.017 153.394 125.045 153.359 125.065C153.324 125.084 153.284 125.095 153.244 125.096H153.24ZM79.5579 120.172C79.5157 120.172 79.4743 120.161 79.4377 120.141C79.4011 120.12 79.3706 120.09 79.3491 120.054L77.864 117.566C77.8322 117.511 77.8234 117.446 77.8396 117.385C77.8557 117.323 77.8954 117.271 77.9501 117.238C78.0048 117.206 78.0702 117.196 78.132 117.211C78.1938 117.227 78.2472 117.265 78.2805 117.319L79.7656 119.808C79.7819 119.835 79.7927 119.866 79.7974 119.897C79.802 119.928 79.8003 119.96 79.7925 119.991C79.7846 120.021 79.7708 120.05 79.7517 120.075C79.7325 120.101 79.7086 120.122 79.6812 120.138C79.6453 120.16 79.6043 120.172 79.5622 120.172H79.5579ZM155.042 119.651H155.023C154.992 119.649 154.961 119.64 154.932 119.626C154.904 119.612 154.878 119.592 154.858 119.568C154.837 119.544 154.821 119.516 154.811 119.486C154.801 119.456 154.797 119.424 154.8 119.393C154.806 119.308 154.811 119.222 154.817 119.137L154.955 116.508C154.956 116.476 154.963 116.444 154.977 116.415C154.99 116.386 155.01 116.36 155.033 116.339C155.057 116.318 155.085 116.301 155.116 116.291C155.146 116.281 155.179 116.277 155.211 116.28C155.275 116.283 155.335 116.312 155.378 116.36C155.421 116.407 155.443 116.47 155.44 116.534L155.301 119.162C155.301 119.252 155.29 119.341 155.283 119.429C155.278 119.489 155.251 119.545 155.208 119.586C155.164 119.627 155.106 119.65 155.046 119.651H155.042ZM76.5877 115.194C76.5457 115.195 76.5043 115.184 76.4677 115.163C76.4311 115.143 76.4005 115.113 76.379 115.077L74.8939 112.588C74.8776 112.561 74.8669 112.531 74.8624 112.499C74.8578 112.468 74.8596 112.436 74.8674 112.405C74.8753 112.375 74.8892 112.346 74.9083 112.32C74.9274 112.295 74.9514 112.273 74.9788 112.257C75.0062 112.241 75.0366 112.23 75.0681 112.226C75.0997 112.221 75.1318 112.223 75.1627 112.231C75.1936 112.239 75.2226 112.253 75.2481 112.272C75.2736 112.291 75.2951 112.314 75.3114 112.342L76.7954 114.831C76.8175 114.867 76.8294 114.909 76.8299 114.951C76.8305 114.994 76.8196 115.036 76.7985 115.073C76.7773 115.11 76.7467 115.141 76.7096 115.162C76.6726 115.183 76.6305 115.195 76.5877 115.194ZM155.351 113.87H155.338C155.306 113.869 155.275 113.861 155.246 113.847C155.217 113.834 155.192 113.815 155.17 113.791C155.149 113.767 155.132 113.74 155.122 113.71C155.111 113.68 155.107 113.648 155.109 113.616L155.261 110.727C155.262 110.695 155.27 110.664 155.283 110.635C155.297 110.606 155.316 110.58 155.34 110.558C155.364 110.537 155.392 110.521 155.422 110.511C155.452 110.5 155.485 110.496 155.517 110.499C155.581 110.502 155.641 110.531 155.684 110.578C155.727 110.625 155.749 110.688 155.746 110.752L155.592 113.642C155.589 113.703 155.563 113.76 155.519 113.803C155.475 113.845 155.417 113.869 155.355 113.87H155.351ZM73.7214 110.164C73.6731 110.164 73.6258 110.15 73.5857 110.123C73.5456 110.096 73.5145 110.058 73.4964 110.013C73.1248 109.095 72.8915 108.126 72.8042 107.14C72.7984 107.077 72.8179 107.014 72.8584 106.965C72.8989 106.916 72.9571 106.885 73.0205 106.878C73.0519 106.875 73.0836 106.878 73.1138 106.888C73.144 106.897 73.1721 106.912 73.1965 106.932C73.2208 106.952 73.2409 106.976 73.2556 107.004C73.2704 107.032 73.2794 107.062 73.2822 107.094C73.3654 108.033 73.5877 108.955 73.942 109.83C73.9567 109.867 73.9621 109.906 73.9579 109.946C73.9536 109.985 73.9398 110.022 73.9176 110.055C73.8954 110.087 73.8655 110.114 73.8305 110.133C73.7956 110.151 73.7566 110.161 73.7171 110.161L73.7214 110.164ZM155.656 108.091H155.646C155.582 108.087 155.522 108.059 155.479 108.011C155.436 107.964 155.414 107.901 155.417 107.838L155.571 104.947C155.571 104.915 155.578 104.883 155.591 104.853C155.604 104.823 155.623 104.796 155.647 104.774C155.671 104.751 155.699 104.734 155.729 104.723C155.76 104.712 155.793 104.707 155.825 104.709C155.858 104.71 155.89 104.718 155.919 104.733C155.949 104.747 155.975 104.767 155.996 104.792C156.018 104.816 156.034 104.845 156.044 104.876C156.054 104.907 156.057 104.94 156.054 104.972L155.902 107.862C155.898 107.924 155.872 107.982 155.827 108.024C155.782 108.067 155.722 108.09 155.661 108.091H155.656ZM73.1081 104.468H73.0951C73.0633 104.467 73.0321 104.459 73.0033 104.445C72.9746 104.431 72.9488 104.412 72.9275 104.389C72.9062 104.365 72.8898 104.337 72.8792 104.307C72.8686 104.278 72.8641 104.246 72.8658 104.214L73.0237 101.325C73.0272 101.261 73.056 101.201 73.1039 101.158C73.1517 101.115 73.2147 101.093 73.279 101.097C73.3433 101.1 73.4035 101.129 73.4465 101.176C73.4895 101.224 73.5117 101.287 73.5083 101.351L73.3504 104.241C73.3468 104.303 73.3197 104.36 73.2746 104.403C73.2296 104.445 73.17 104.468 73.1081 104.468ZM155.971 102.31H155.958C155.894 102.306 155.834 102.278 155.791 102.231C155.748 102.183 155.725 102.121 155.729 102.057L155.881 99.1664C155.882 99.1344 155.889 99.1028 155.902 99.0737C155.916 99.0446 155.935 99.0185 155.959 98.9971C155.983 98.9757 156.011 98.9594 156.042 98.9493C156.072 98.9392 156.104 98.9354 156.136 98.9382C156.201 98.9415 156.261 98.9701 156.304 99.0175C156.347 99.0649 156.369 99.1274 156.366 99.1912L156.213 102.082C156.21 102.143 156.183 102.201 156.138 102.244C156.093 102.286 156.033 102.31 155.971 102.31ZM73.425 98.6885H73.411C73.3469 98.6848 73.2868 98.6561 73.244 98.6084C73.2012 98.5608 73.1792 98.4982 73.1827 98.4344L73.3407 95.544C73.3413 95.5116 73.3485 95.4796 73.3618 95.4501C73.3751 95.4205 73.3942 95.3939 73.4181 95.3718C73.442 95.3498 73.4701 95.3328 73.5007 95.3218C73.5314 95.3108 73.5639 95.306 73.5964 95.3078C73.6289 95.3097 73.6607 95.318 73.69 95.3323C73.7192 95.3466 73.7452 95.3667 73.7664 95.3912C73.7877 95.4158 73.8038 95.4443 73.8137 95.4752C73.8236 95.5061 73.8272 95.5386 73.8241 95.5709L73.6662 98.4602C73.6632 98.5218 73.6364 98.5799 73.5915 98.6224C73.5466 98.6649 73.487 98.6885 73.425 98.6885ZM156.273 96.529H156.26C156.228 96.5273 156.197 96.5195 156.168 96.5058C156.139 96.4921 156.113 96.4729 156.092 96.4493C156.071 96.4257 156.054 96.3982 156.044 96.3682C156.033 96.3383 156.029 96.3066 156.03 96.2749L156.183 93.3845C156.184 93.3526 156.192 93.3213 156.205 93.2924C156.219 93.2635 156.238 93.2376 156.262 93.2163C156.286 93.195 156.313 93.1787 156.344 93.1684C156.374 93.1581 156.406 93.154 156.438 93.1563C156.502 93.1599 156.563 93.1887 156.605 93.2363C156.648 93.2839 156.671 93.3465 156.668 93.4104L156.512 96.3008C156.508 96.3619 156.482 96.4195 156.438 96.4619C156.393 96.5043 156.334 96.5283 156.273 96.529ZM73.7441 92.9087H73.7311C73.6992 92.9072 73.668 92.8994 73.6391 92.8858C73.6103 92.8722 73.5845 92.853 73.5632 92.8293C73.5418 92.8057 73.5254 92.7781 73.5149 92.7481C73.5044 92.7181 73.4999 92.6864 73.5018 92.6547L73.6587 89.7642C73.6599 89.7325 73.6675 89.7013 73.6811 89.6725C73.6947 89.6437 73.714 89.6179 73.7378 89.5967C73.7617 89.5755 73.7895 89.5593 73.8198 89.5491C73.85 89.5388 73.882 89.5348 73.9139 89.5371C73.9457 89.5387 73.9768 89.5466 74.0056 89.5603C74.0343 89.574 74.06 89.5932 74.0812 89.6168C74.1024 89.6404 74.1187 89.668 74.1292 89.6979C74.1396 89.7279 74.144 89.7595 74.1421 89.7912L73.9831 92.6805C73.9796 92.7421 73.9525 92.8 73.9075 92.8424C73.8624 92.8848 73.8029 92.9085 73.7409 92.9087H73.7441ZM156.578 90.7492H156.565C156.501 90.7456 156.44 90.7169 156.397 90.6693C156.354 90.6217 156.332 90.5591 156.335 90.4952L156.489 87.6048C156.489 87.5723 156.497 87.5403 156.51 87.5106C156.523 87.4809 156.542 87.4541 156.566 87.4319C156.59 87.4098 156.618 87.3926 156.648 87.3815C156.679 87.3704 156.712 87.3656 156.744 87.3673C156.777 87.369 156.809 87.3773 156.838 87.3916C156.867 87.4059 156.893 87.426 156.915 87.4506C156.936 87.4752 156.952 87.5038 156.962 87.5347C156.972 87.5657 156.976 87.5983 156.973 87.6306L156.82 90.521C156.817 90.5827 156.79 90.6408 156.745 90.6832C156.7 90.7257 156.64 90.7493 156.578 90.7492ZM73.6165 87.1968C73.5743 87.1968 73.5329 87.1859 73.4963 87.1651C73.4597 87.1444 73.4292 87.1145 73.4077 87.0784C73.2001 86.7284 72.9047 86.438 72.5506 86.2355C72.1965 86.033 71.7956 85.9255 71.3872 85.9233H71.1709C71.1066 85.9233 71.045 85.8979 70.9996 85.8527C70.9541 85.8074 70.9286 85.7461 70.9286 85.6821C70.9286 85.6182 70.9541 85.5569 70.9996 85.5116C71.045 85.4664 71.1066 85.441 71.1709 85.441H71.3872C71.8799 85.4422 72.3638 85.5706 72.7917 85.8137C73.2196 86.0567 73.5768 86.406 73.8285 86.8275C73.8502 86.8642 73.8619 86.9059 73.8622 86.9484C73.8625 86.991 73.8515 87.0329 73.8303 87.0698C73.8091 87.1068 73.7785 87.1375 73.7415 87.1589C73.7045 87.1802 73.6625 87.1914 73.6197 87.1914L73.6165 87.1968ZM68.2581 85.9287H65.3517C65.2875 85.9287 65.2258 85.9033 65.1804 85.858C65.1349 85.8128 65.1094 85.7515 65.1094 85.6875C65.1094 85.6236 65.1349 85.5622 65.1804 85.517C65.2258 85.4718 65.2875 85.4464 65.3517 85.4464H68.2602C68.3245 85.4464 68.3861 85.4718 68.4315 85.517C68.477 85.5622 68.5025 85.6236 68.5025 85.6875C68.5025 85.7515 68.477 85.8128 68.4315 85.858C68.3861 85.9033 68.3245 85.9287 68.2602 85.9287H68.2581ZM62.4421 85.9287H59.5358C59.4715 85.9287 59.4099 85.9033 59.3644 85.858C59.319 85.8128 59.2935 85.7515 59.2935 85.6875C59.2935 85.6236 59.319 85.5622 59.3644 85.517C59.4099 85.4718 59.4715 85.4464 59.5358 85.4464H62.4443C62.5085 85.4464 62.5702 85.4718 62.6156 85.517C62.661 85.5622 62.6866 85.6236 62.6866 85.6875C62.6866 85.7515 62.661 85.8128 62.6156 85.858C62.5702 85.9033 62.5085 85.9287 62.4443 85.9287H62.4421ZM56.6251 85.9287H53.7198C53.6556 85.9287 53.5939 85.9033 53.5485 85.858C53.5031 85.8128 53.4775 85.7515 53.4775 85.6875C53.4775 85.6236 53.5031 85.5622 53.5485 85.517C53.5939 85.4718 53.6556 85.4464 53.7198 85.4464H56.6273C56.6915 85.4464 56.7531 85.4718 56.7986 85.517C56.844 85.5622 56.8695 85.6236 56.8695 85.6875C56.8695 85.7515 56.844 85.8128 56.7986 85.858C56.7531 85.9033 56.6915 85.9287 56.6273 85.9287H56.6251ZM156.882 84.9727H156.869C156.805 84.9691 156.744 84.9404 156.701 84.8928C156.658 84.8452 156.636 84.7826 156.639 84.7187L156.792 81.8283C156.793 81.7959 156.801 81.7641 156.815 81.7349C156.829 81.7056 156.848 81.6794 156.873 81.658C156.897 81.6365 156.926 81.6203 156.957 81.6101C156.988 81.6 157.02 81.5962 157.053 81.599C157.117 81.6026 157.177 81.6313 157.22 81.6789C157.263 81.7265 157.285 81.7891 157.282 81.853L157.129 84.7434C157.125 84.8048 157.097 84.8621 157.051 84.9037C157.006 84.9453 156.946 84.9681 156.884 84.9673L156.882 84.9727ZM157.188 79.1919H157.175C157.143 79.1903 157.112 79.1824 157.083 79.1687C157.054 79.155 157.028 79.1358 157.007 79.1122C156.986 79.0886 156.969 79.0611 156.959 79.0312C156.948 79.0012 156.944 78.9695 156.945 78.9379L157.098 76.0474C157.099 76.0156 157.107 75.9842 157.12 75.9553C157.134 75.9264 157.153 75.9005 157.177 75.8792C157.201 75.8579 157.229 75.8416 157.259 75.8313C157.289 75.821 157.321 75.8169 157.353 75.8192C157.417 75.8228 157.478 75.8516 157.521 75.8992C157.564 75.9468 157.586 76.0094 157.583 76.0733L157.429 78.9637C157.424 79.0239 157.397 79.0801 157.353 79.1214C157.309 79.1627 157.251 79.1859 157.19 79.1865L157.188 79.1919ZM157.493 73.4111H157.485C157.421 73.4075 157.361 73.3787 157.318 73.3311C157.275 73.2835 157.253 73.2209 157.256 73.157L157.408 70.2677C157.409 70.2357 157.417 70.2043 157.43 70.1752C157.443 70.1462 157.463 70.1201 157.487 70.0988C157.51 70.0774 157.539 70.0611 157.569 70.0509C157.599 70.0407 157.632 70.0368 157.664 70.0395C157.728 70.0428 157.788 70.0713 157.831 70.1188C157.874 70.1662 157.896 70.2287 157.893 70.2925L157.74 73.1829C157.736 73.2443 157.708 73.3016 157.662 73.3431C157.617 73.3845 157.557 73.407 157.495 73.4057L157.493 73.4111ZM157.799 67.6303H157.786C157.754 67.6288 157.723 67.621 157.694 67.6074C157.665 67.5939 157.64 67.5748 157.618 67.5513C157.597 67.5278 157.581 67.5003 157.57 67.4704C157.559 67.4406 157.555 67.4089 157.557 67.3773L157.709 64.4869C157.71 64.4551 157.718 64.4238 157.732 64.395C157.745 64.3661 157.764 64.3403 157.788 64.319C157.812 64.2977 157.84 64.2814 157.87 64.2711C157.9 64.2607 157.932 64.2565 157.964 64.2587C158.028 64.262 158.089 64.2905 158.132 64.3379C158.175 64.3854 158.197 64.4478 158.194 64.5116L158.04 67.4021C158.036 67.4623 158.009 67.5187 157.964 67.56C157.92 67.6013 157.862 67.6245 157.801 67.6249L157.799 67.6303ZM158.105 61.8505H158.091C158.027 61.8472 157.967 61.8187 157.924 61.7712C157.881 61.7238 157.858 61.6613 157.862 61.5975L157.883 61.1906C157.883 61.1465 157.883 61.1034 157.883 61.0593C157.883 60.7024 157.805 60.3498 157.653 60.0265C157.501 59.7032 157.279 59.4171 157.004 59.1883C156.956 59.1467 156.927 59.0883 156.922 59.0255C156.918 58.9627 156.938 58.9005 156.978 58.8523C157.019 58.8041 157.077 58.7736 157.14 58.7674C157.203 58.7612 157.266 58.7797 157.315 58.8191C157.645 59.0931 157.91 59.4357 158.092 59.8228C158.274 60.2099 158.368 60.632 158.368 61.0593C158.368 61.112 158.368 61.1669 158.368 61.2165L158.346 61.6223C158.342 61.6825 158.314 61.7388 158.27 61.78C158.226 61.8213 158.168 61.8445 158.107 61.8451L158.105 61.8505ZM154.406 58.6027L151.498 58.565C151.434 58.565 151.372 58.5396 151.327 58.4944C151.282 58.4492 151.256 58.3879 151.256 58.3239C151.256 58.2599 151.282 58.1986 151.327 58.1534C151.372 58.1082 151.434 58.0828 151.498 58.0828L154.406 58.1204C154.47 58.1204 154.532 58.1459 154.577 58.1911C154.623 58.2363 154.648 58.2976 154.648 58.3616C154.648 58.4255 154.623 58.4869 154.577 58.5321C154.532 58.5773 154.47 58.6027 154.406 58.6027ZM148.59 58.5263L146.17 58.494C146.106 58.494 146.044 58.4686 145.999 58.4234C145.953 58.3781 145.928 58.3168 145.928 58.2529C145.928 58.1889 145.953 58.1276 145.999 58.0823C146.044 58.0371 146.106 58.0117 146.17 58.0117L148.59 58.044C148.654 58.044 148.716 58.0694 148.761 58.1146C148.807 58.1599 148.832 58.2212 148.832 58.2851C148.832 58.3491 148.807 58.4104 148.761 58.4557C148.716 58.5009 148.654 58.5263 148.59 58.5263Z" fill="#E30613"/>
<path id="Vector_21" d="M146.509 0C136.893 0 129.095 7.73467 129.095 17.2768C129.095 19.6623 130.183 22.9973 131.815 26.6596C135.925 35.8906 143.497 47.195 145.814 50.5719C145.89 50.6838 145.993 50.7754 146.113 50.8387C146.234 50.902 146.368 50.9351 146.504 50.9351C146.64 50.9351 146.774 50.902 146.894 50.8387C147.014 50.7754 147.117 50.6838 147.194 50.5719C150.426 45.8569 163.914 25.6735 163.914 17.2757C163.918 7.73467 156.123 0 146.509 0Z" fill="#E30613"/>
<path id="Vector_22" d="M146.508 29.6178C153.38 29.6178 158.95 24.0738 158.95 17.2348C158.95 10.3959 153.38 4.85181 146.508 4.85181C139.637 4.85181 134.066 10.3959 134.066 17.2348C134.066 24.0738 139.637 29.6178 146.508 29.6178Z" fill="#E6E7E9"/>
<path id="Vector_23" d="M146.509 60.3789C148.512 60.3789 150.136 58.7624 150.136 56.7683C150.136 54.7742 148.512 53.1577 146.509 53.1577C144.505 53.1577 142.881 54.7742 142.881 56.7683C142.881 58.7624 144.505 60.3789 146.509 60.3789Z" fill="#E30613"/>
<path id="Vector_24" d="M153.056 13.325H140.395V23.6669H153.056V13.325Z" fill="#E6E7E9"/>
<path id="Vector_25" d="M153.051 23.9082H140.396C140.364 23.9084 140.332 23.9022 140.303 23.8902C140.273 23.8781 140.246 23.8604 140.224 23.838C140.201 23.8156 140.183 23.7889 140.171 23.7596C140.159 23.7303 140.152 23.6988 140.152 23.6671V13.3251C140.153 13.2611 140.178 13.1997 140.224 13.1545C140.27 13.1094 140.331 13.084 140.396 13.084H153.051C153.115 13.084 153.177 13.1094 153.222 13.1546C153.268 13.1998 153.293 13.2612 153.293 13.3251V23.6671C153.293 23.731 153.268 23.7924 153.222 23.8376C153.177 23.8828 153.115 23.9082 153.051 23.9082ZM140.632 23.4259H152.813V13.5641H140.636L140.632 23.4259Z" fill="#E30613"/>
<path id="Vector_26" d="M150.012 17.9368H147.274V23.667H150.012V17.9368Z" fill="#E6E7E9"/>
<path id="Vector_27" d="M150.012 23.9081H147.275C147.21 23.9081 147.149 23.8826 147.103 23.8374C147.058 23.7922 147.032 23.7309 147.032 23.6669V17.9367C147.032 17.8727 147.058 17.8114 147.103 17.7662C147.149 17.721 147.21 17.6956 147.275 17.6956H150.012C150.076 17.6956 150.138 17.721 150.183 17.7662C150.229 17.8114 150.254 17.8727 150.254 17.9367V23.6669C150.254 23.7309 150.229 23.7922 150.183 23.8374C150.138 23.8826 150.076 23.9081 150.012 23.9081ZM147.517 23.4258H149.77V18.1778H147.517V23.4258Z" fill="#E30613"/>
<path id="Vector_28" d="M144.685 17.2444H141.877V20.039H144.685V17.2444Z" fill="#E6E7E9"/>
<path id="Vector_29" d="M144.685 20.2801H141.873C141.809 20.2801 141.747 20.2547 141.702 20.2095C141.656 20.1642 141.631 20.1029 141.631 20.0389V17.24C141.631 17.1761 141.656 17.1148 141.702 17.0695C141.747 17.0243 141.809 16.9989 141.873 16.9989H144.685C144.75 16.9989 144.811 17.0243 144.857 17.0695C144.902 17.1148 144.928 17.1761 144.928 17.24V20.0389C144.928 20.1029 144.902 20.1642 144.857 20.2095C144.811 20.2547 144.75 20.2801 144.685 20.2801ZM142.119 19.7978H144.443V17.4855H142.119V19.7978Z" fill="#E30613"/>
<path id="Vector_30" d="M153.776 11.2625H139.377V13.6727H153.776V11.2625Z" fill="#E6E7E9"/>
<path id="Vector_31" d="M153.776 13.9148H139.377C139.313 13.9148 139.251 13.8894 139.206 13.8441C139.16 13.7989 139.135 13.7376 139.135 13.6736V11.2623C139.135 11.1983 139.16 11.137 139.206 11.0917C139.251 11.0465 139.313 11.0211 139.377 11.0211H153.776C153.84 11.0211 153.902 11.0465 153.947 11.0917C153.993 11.137 154.018 11.1983 154.018 11.2623V13.6715C154.018 13.7033 154.012 13.7349 154 13.7644C153.988 13.7939 153.97 13.8207 153.948 13.8434C153.925 13.866 153.899 13.8839 153.869 13.8962C153.839 13.9085 153.808 13.9148 153.776 13.9148ZM139.619 13.4325H153.533V11.5034H139.619V13.4325Z" fill="#E30613"/>
<path id="Vector_32" d="M104.58 158.021H99.9481C98.0552 158.021 96.5215 162.542 96.5215 168.066C96.5215 173.589 98.0552 178.114 99.9481 178.114H104.58C106.473 178.114 108.007 173.592 108.007 168.068C108.007 162.543 106.473 158.021 104.58 158.021Z" fill="#E30613"/>
<path id="Vector_33" d="M99.9481 177.95C101.841 177.95 103.375 173.473 103.375 167.951C103.375 162.428 101.841 157.951 99.9481 157.951C98.0556 157.951 96.5215 162.428 96.5215 167.951C96.5215 173.473 98.0556 177.95 99.9481 177.95Z" fill="#E6E7E9"/>
<path id="Vector_34" d="M99.9482 178.191C97.8931 178.191 96.2793 173.693 96.2793 167.951C96.2793 162.208 97.8877 157.708 99.9482 157.708C102.009 157.708 103.62 162.208 103.62 167.951C103.62 173.693 102.005 178.191 99.9482 178.191ZM99.9482 158.192C98.4101 158.192 96.7639 162.114 96.7639 167.951C96.7639 173.787 98.4101 177.709 99.9482 177.709C101.486 177.709 103.133 173.787 103.133 167.951C103.133 162.114 101.486 158.192 99.9482 158.192Z" fill="#E30613"/>
<path id="Vector_35" d="M90.4938 158.761H85.8612C83.9694 158.761 82.4346 163.282 82.4346 168.805C82.4346 174.329 83.9694 178.852 85.8612 178.852H90.4938C92.3856 178.852 93.9204 174.331 93.9204 168.807C93.9204 163.282 92.3856 158.761 90.4938 158.761Z" fill="#E30613"/>
<path id="Vector_36" d="M85.8612 178.69C87.7537 178.69 89.2878 174.213 89.2878 168.69C89.2878 163.168 87.7537 158.691 85.8612 158.691C83.9687 158.691 82.4346 163.168 82.4346 168.69C82.4346 174.213 83.9687 178.69 85.8612 178.69Z" fill="#E6E7E9"/>
<path id="Vector_37" d="M85.8603 178.93C83.8052 178.93 82.1914 174.432 82.1914 168.69C82.1914 162.948 83.803 158.449 85.8603 158.449C87.9176 158.449 89.5303 162.947 89.5303 168.69C89.5303 174.433 87.9176 178.93 85.8603 178.93ZM85.8603 158.931C84.3222 158.931 82.676 162.852 82.676 168.69C82.676 174.528 84.3222 178.447 85.8603 178.447C87.3984 178.447 89.0446 174.527 89.0446 168.69C89.0446 162.853 87.3951 158.931 85.8603 158.931Z" fill="#E30613"/>
<path id="Vector_38" d="M52.713 158.963H48.7434C47.1209 158.963 45.8057 162.814 45.8057 167.547C45.8057 172.28 47.1209 176.133 48.7434 176.133H52.713C54.3354 176.133 55.6507 172.282 55.6507 167.548C55.6507 162.815 54.3354 158.963 52.713 158.963Z" fill="#E30613"/>
<path id="Vector_39" d="M103.44 173.169L103.326 111.89L4.08789 124.395V168.237L103.44 173.169Z" fill="#E6E7E9"/>
<path id="Vector_40" d="M103.441 173.411H103.429L4.07599 168.478C4.01392 168.475 3.95542 168.448 3.9127 168.403C3.86998 168.358 3.84633 168.299 3.84668 168.237V124.395C3.84671 124.337 3.86813 124.28 3.90694 124.236C3.94574 124.192 3.99929 124.164 4.0576 124.156L103.296 111.649C103.33 111.646 103.365 111.649 103.398 111.659C103.43 111.669 103.461 111.685 103.487 111.708C103.512 111.73 103.533 111.758 103.547 111.789C103.561 111.82 103.569 111.854 103.569 111.888L103.684 173.169C103.684 173.233 103.658 173.295 103.613 173.34C103.567 173.385 103.506 173.411 103.441 173.411ZM4.32693 168.008L103.195 172.916L103.081 112.163L4.32693 124.608V168.008Z" fill="#E30613"/>
<path id="Vector_41" d="M116.874 157.466H70.5312V97.9899L116.874 100.159V157.466Z" fill="#E6E7E9"/>
<path id="Vector_42" d="M116.874 157.708C116.81 157.708 116.748 157.682 116.703 157.637C116.657 157.592 116.632 157.53 116.632 157.466V100.388L70.5228 98.2308C70.49 98.2308 70.4576 98.2242 70.4274 98.2114C70.3973 98.1986 70.3701 98.1798 70.3474 98.1562C70.3248 98.1326 70.3072 98.1047 70.2957 98.0741C70.2842 98.0435 70.2791 98.011 70.2807 97.9784C70.2822 97.9458 70.2904 97.9138 70.3047 97.8845C70.319 97.8551 70.3391 97.8289 70.3639 97.8075C70.3887 97.7862 70.4175 97.77 70.4488 97.76C70.48 97.7501 70.5129 97.7465 70.5456 97.7496L116.888 99.9177C116.95 99.9205 117.009 99.9471 117.052 99.9921C117.095 100.037 117.119 100.097 117.119 100.159V157.465C117.119 157.497 117.112 157.529 117.1 157.559C117.088 157.588 117.07 157.615 117.047 157.637C117.024 157.66 116.997 157.678 116.968 157.69C116.938 157.702 116.906 157.708 116.874 157.708Z" fill="#E30613"/>
<path id="Vector_43" d="M70.5311 157.466V97.9899L0.242188 102.337V156.807L70.5311 157.466Z" fill="#E6E7E9"/>
<path id="Vector_44" d="M66.2807 102.225V127.161L44.0099 127.735V103.51L66.2807 102.225Z" fill="#E6E7E9"/>
<path id="Vector_45" d="M44.0099 127.976C43.9457 127.976 43.8842 127.95 43.8389 127.905C43.7935 127.86 43.7679 127.799 43.7676 127.735V103.513C43.7677 103.452 43.7914 103.393 43.8338 103.348C43.8762 103.303 43.9341 103.276 43.9958 103.272L66.2666 101.987C66.2992 101.985 66.3317 101.99 66.3623 102.001C66.3928 102.013 66.4208 102.03 66.4445 102.052C66.4683 102.074 66.4872 102.101 66.5004 102.131C66.5135 102.16 66.5204 102.192 66.5208 102.225V127.161C66.5208 127.224 66.496 127.284 66.4518 127.33C66.4075 127.375 66.3473 127.401 66.2839 127.402L44.0142 127.976H44.0099ZM44.2521 103.737V127.487L66.0384 126.926V102.483L44.2521 103.737Z" fill="#E30613"/>
<path id="Vector_46" d="M70.5322 102.225H66.2803V127.162H70.5322V102.225Z" fill="#E6E7E9"/>
<path id="Vector_47" d="M70.5312 127.402H66.2804C66.2161 127.402 66.1545 127.376 66.1091 127.331C66.0636 127.286 66.0381 127.225 66.0381 127.161V102.225C66.0381 102.161 66.0636 102.099 66.1091 102.054C66.1545 102.009 66.2161 101.983 66.2804 101.983H70.5312C70.5955 101.983 70.6571 102.009 70.7025 102.054C70.748 102.099 70.7735 102.161 70.7735 102.225V127.161C70.7735 127.225 70.748 127.286 70.7025 127.331C70.6571 127.376 70.5955 127.402 70.5312 127.402ZM66.5205 126.92H70.2867V102.466H66.5205V126.92Z" fill="#E30613"/>
<path id="Vector_48" d="M53.1152 103.346L53.1455 106.387L56.5343 106.268L56.5949 103.135L53.1152 103.346Z" fill="#E30613"/>
<path id="Vector_49" d="M49.1614 123.137C49.0988 123.136 49.0389 123.112 48.9937 123.069C48.9701 123.047 48.9513 123.02 48.9385 122.99C48.9257 122.96 48.919 122.928 48.9191 122.896V111.303C48.919 111.24 48.9432 111.181 48.9866 111.136C49.0299 111.091 49.0891 111.064 49.1516 111.062L60.8798 110.579C60.9126 110.577 60.9454 110.582 60.9761 110.594C61.0069 110.605 61.0348 110.623 61.0582 110.646C61.0818 110.669 61.1005 110.696 61.1133 110.726C61.1261 110.756 61.1328 110.788 61.1329 110.821V122.413C61.1329 122.476 61.1087 122.536 61.0654 122.581C61.022 122.625 60.9629 122.652 60.9003 122.655L49.1722 123.136L49.1614 123.137ZM49.4047 111.534V122.644L60.6537 122.182V111.072L49.4047 111.534Z" fill="#E30613"/>
<path id="Vector_50" d="M58.7887 116.878C58.8339 116.876 58.8782 116.865 58.9188 116.845C58.9594 116.825 58.9955 116.797 59.0249 116.763C59.0543 116.728 59.0763 116.688 59.0896 116.645C59.1029 116.602 59.1073 116.557 59.1024 116.512C58.9012 114.882 57.1554 113.674 55.0257 113.762C52.8959 113.849 51.1513 115.201 50.949 116.847C50.9431 116.891 50.9469 116.935 50.9601 116.977C50.9734 117.019 50.9958 117.058 51.0257 117.09C51.0557 117.123 51.0924 117.148 51.1334 117.165C51.1743 117.182 51.2185 117.189 51.2627 117.187L58.7887 116.878Z" fill="#E30613"/>
<path id="Vector_51" d="M54.2731 121.292C54.0313 121.293 53.7986 121.2 53.6241 121.033C53.5338 120.947 53.4621 120.843 53.4133 120.728C53.3646 120.613 53.3399 120.49 53.3407 120.365V119.805C53.3407 119.741 53.3662 119.68 53.4117 119.635C53.4571 119.589 53.5187 119.564 53.583 119.564C53.6473 119.564 53.7089 119.589 53.7543 119.635C53.7998 119.68 53.8253 119.741 53.8253 119.805V120.365C53.8244 120.425 53.8359 120.485 53.8592 120.54C53.8824 120.596 53.9169 120.646 53.9605 120.688C54.0053 120.73 54.0581 120.762 54.1157 120.783C54.1733 120.804 54.2345 120.813 54.2958 120.811C54.4265 120.805 54.55 120.75 54.6411 120.656C54.7322 120.563 54.784 120.438 54.7858 120.308V112.698C54.7858 112.634 54.8113 112.573 54.8567 112.528C54.9022 112.482 54.9638 112.457 55.0281 112.457C55.0923 112.457 55.1539 112.482 55.1994 112.528C55.2448 112.573 55.2703 112.634 55.2703 112.698V120.308C55.2673 120.562 55.1668 120.806 54.9892 120.989C54.8117 121.172 54.5706 121.281 54.3153 121.293L54.2731 121.292Z" fill="#E30613"/>
<path id="Vector_52" d="M66.2807 129.402V154.339H44.0099V129.83L66.2807 129.402Z" fill="#E6E7E9"/>
<path id="Vector_53" d="M66.2807 154.586H44.0099C43.978 154.586 43.9465 154.58 43.9171 154.568C43.8877 154.555 43.861 154.538 43.8385 154.515C43.816 154.493 43.7982 154.466 43.786 154.437C43.7738 154.408 43.7676 154.376 43.7676 154.345V129.826C43.7678 129.763 43.7929 129.703 43.8373 129.658C43.8818 129.613 43.9421 129.587 44.0055 129.585L66.2753 129.155C66.3076 129.154 66.3397 129.16 66.3698 129.172C66.3999 129.183 66.4273 129.201 66.4505 129.223C66.4963 129.269 66.5223 129.331 66.523 129.396V154.333C66.5246 154.366 66.5195 154.398 66.5081 154.429C66.4966 154.459 66.479 154.487 66.4564 154.511C66.4337 154.535 66.4064 154.554 66.3762 154.566C66.346 154.579 66.3135 154.586 66.2807 154.586ZM44.2521 154.104H66.0384V129.649L44.2521 130.065V154.104Z" fill="#E30613"/>
<path id="Vector_54" d="M70.5322 129.402H66.2803V154.339H70.5322V129.402Z" fill="#E6E7E9"/>
<path id="Vector_55" d="M70.5312 154.586H66.2804C66.2161 154.586 66.1545 154.56 66.1091 154.515C66.0636 154.47 66.0381 154.409 66.0381 154.345V129.402C66.0381 129.338 66.0636 129.277 66.1091 129.232C66.1545 129.186 66.2161 129.161 66.2804 129.161H70.5312C70.5955 129.161 70.6571 129.186 70.7025 129.232C70.748 129.277 70.7735 129.338 70.7735 129.402V154.339C70.7742 154.371 70.7685 154.403 70.7566 154.433C70.7448 154.463 70.727 154.49 70.7045 154.513C70.6819 154.536 70.6549 154.554 70.6252 154.567C70.5954 154.579 70.5635 154.586 70.5312 154.586ZM66.5205 154.098H70.2867V129.643H66.5205V154.098Z" fill="#E30613"/>
<path id="Vector_56" d="M52.4834 129.936V132.948L55.8397 133.008L55.9165 129.876L52.4834 129.936Z" fill="#E30613"/>
<path id="Vector_57" d="M60.9426 150.625H49.4103C49.346 150.625 49.2844 150.6 49.2389 150.555C49.1935 150.51 49.168 150.448 49.168 150.384V138.907C49.168 138.843 49.1935 138.781 49.2389 138.736C49.2844 138.691 49.346 138.666 49.4103 138.666H60.9426C61.0069 138.666 61.0685 138.691 61.1139 138.736C61.1594 138.781 61.1849 138.843 61.1849 138.907V150.388C61.1841 150.451 61.1582 150.511 61.1128 150.556C61.0675 150.601 61.0063 150.625 60.9426 150.625ZM49.6525 150.143H60.7003V139.148H49.6525V150.143Z" fill="#E30613"/>
<path id="Vector_58" d="M59.2737 147.407H51.0781V148.786H59.2737V147.407Z" fill="#E30613"/>
<path id="Vector_59" d="M53.6629 141.175H52.2773V145.904H53.6629V141.175Z" fill="#E30613"/>
<path id="Vector_60" d="M51.1348 142.089L52.9703 140.262L54.8047 142.089H51.1348Z" fill="#E30613"/>
<path id="Vector_61" d="M58.075 141.175H56.6895V145.904H58.075V141.175Z" fill="#E30613"/>
<path id="Vector_62" d="M55.5469 142.089L57.3824 140.262L59.218 142.089H55.5469Z" fill="#E30613"/>
<path id="Vector_63" d="M43.8798 130.488H39.6279V154.339H43.8798V130.488Z" fill="#E6E7E9"/>
<path id="Vector_64" d="M43.8779 154.586H39.6271C39.5628 154.586 39.5012 154.56 39.4557 154.515C39.4103 154.47 39.3848 154.409 39.3848 154.345V130.488C39.3848 130.424 39.4103 130.363 39.4557 130.318C39.5012 130.272 39.5628 130.247 39.6271 130.247H43.8779C43.9421 130.247 44.0038 130.272 44.0492 130.318C44.0946 130.363 44.1202 130.424 44.1202 130.488V154.339C44.1209 154.371 44.1151 154.403 44.1033 154.433C44.0914 154.463 44.0737 154.49 44.0511 154.513C44.0286 154.536 44.0016 154.554 43.9719 154.567C43.9421 154.579 43.9101 154.586 43.8779 154.586ZM39.8693 154.103H43.6356V130.729H39.8693V154.103Z" fill="#E30613"/>
<path id="Vector_65" d="M39.5882 130.488V154.339H18.0312V131.178L39.5882 130.488Z" fill="#E6E7E9"/>
<path id="Vector_66" d="M39.5882 154.586H18.0323C17.9681 154.586 17.9064 154.56 17.861 154.515C17.8156 154.47 17.79 154.408 17.79 154.345V131.178C17.79 131.116 17.8145 131.055 17.8583 131.01C17.9021 130.965 17.9618 130.939 18.0248 130.937L39.5817 130.247C39.6143 130.245 39.6469 130.25 39.6773 130.262C39.7078 130.273 39.7353 130.292 39.758 130.315C39.7812 130.337 39.7996 130.364 39.8122 130.394C39.8249 130.424 39.8314 130.456 39.8316 130.488V154.339C39.8323 154.371 39.8265 154.403 39.8146 154.433C39.8027 154.463 39.7849 154.491 39.7622 154.514C39.7395 154.536 39.7124 154.555 39.6825 154.567C39.6526 154.579 39.6206 154.586 39.5882 154.586ZM18.28 154.098H39.347V130.738L18.28 131.412V154.098Z" fill="#E30613"/>
<path id="Vector_67" d="M26.5527 131.14V134.153L29.9242 134.213L29.9934 131.08L26.5527 131.14Z" fill="#E30613"/>
<path id="Vector_68" d="M34.7488 150.358H23.1007C23.0364 150.358 22.9748 150.333 22.9294 150.288C22.8839 150.242 22.8584 150.181 22.8584 150.117V138.524C22.8584 138.46 22.8839 138.399 22.9294 138.354C22.9748 138.309 23.0364 138.283 23.1007 138.283H34.7488C34.8131 138.283 34.8747 138.309 34.9201 138.354C34.9656 138.399 34.9911 138.46 34.9911 138.524V150.117C34.9911 150.181 34.9656 150.242 34.9201 150.288C34.8747 150.333 34.8131 150.358 34.7488 150.358ZM23.343 149.876H34.5043V138.761H23.343V149.876Z" fill="#E30613"/>
<path id="Vector_69" d="M32.6652 144.496C32.7098 144.495 32.7538 144.486 32.7944 144.467C32.835 144.449 32.8712 144.422 32.9006 144.389C32.93 144.355 32.952 144.316 32.9651 144.274C32.9782 144.231 32.9822 144.187 32.9767 144.143C32.7766 142.505 31.0395 141.224 28.9281 141.224C26.8168 141.224 25.0764 142.505 24.8774 144.144C24.8719 144.188 24.8759 144.233 24.889 144.275C24.9022 144.318 24.9243 144.357 24.9539 144.39C24.9834 144.424 25.0197 144.45 25.0604 144.469C25.1012 144.487 25.1453 144.497 25.19 144.497L32.6652 144.496Z" fill="#E30613"/>
<path id="Vector_70" d="M28.2065 148.724C27.9519 148.724 27.7079 148.623 27.528 148.444C27.3481 148.265 27.2471 148.022 27.2471 147.768V147.21C27.2471 147.146 27.2726 147.084 27.318 147.039C27.3635 146.994 27.4251 146.968 27.4894 146.968C27.5536 146.968 27.6152 146.994 27.6607 147.039C27.7061 147.084 27.7316 147.146 27.7316 147.21V147.768C27.7286 147.832 27.7386 147.896 27.7611 147.956C27.7836 148.016 27.8181 148.071 27.8626 148.118C27.907 148.164 27.9605 148.201 28.0197 148.226C28.0789 148.252 28.1426 148.265 28.207 148.265C28.2714 148.265 28.3352 148.252 28.3944 148.226C28.4536 148.201 28.507 148.164 28.5515 148.118C28.5959 148.071 28.6304 148.016 28.6529 147.956C28.6754 147.896 28.6855 147.832 28.6824 147.768V140.161C28.6824 140.097 28.7079 140.035 28.7534 139.99C28.7988 139.945 28.8604 139.92 28.9247 139.92C28.9889 139.92 29.0506 139.945 29.096 139.99C29.1414 140.035 29.167 140.097 29.167 140.161V147.769C29.1664 148.023 29.065 148.265 28.885 148.444C28.7049 148.623 28.4609 148.724 28.2065 148.724Z" fill="#E30613"/>
<path id="Vector_71" d="M43.8798 103.874H39.6279V127.725H43.8798V103.874Z" fill="#E6E7E9"/>
<path id="Vector_72" d="M43.8779 127.966H39.6271C39.5628 127.966 39.5012 127.941 39.4557 127.895C39.4103 127.85 39.3848 127.789 39.3848 127.725V103.874C39.3848 103.81 39.4103 103.749 39.4557 103.703C39.5012 103.658 39.5628 103.633 39.6271 103.633H43.8779C43.9421 103.633 44.0037 103.658 44.0492 103.703C44.0946 103.749 44.1202 103.81 44.1202 103.874V127.725C44.1202 127.789 44.0946 127.85 44.0492 127.895C44.0037 127.941 43.9421 127.966 43.8779 127.966ZM39.8693 127.484H43.6356V104.115H39.8693V127.484Z" fill="#E30613"/>
<path id="Vector_73" d="M39.5882 103.874V127.725L18.0312 128.298V104.564L39.5882 103.874Z" fill="#E6E7E9"/>
<path id="Vector_74" d="M18.0323 128.534C17.9693 128.535 17.9088 128.51 17.8636 128.467C17.8403 128.444 17.8218 128.417 17.8092 128.387C17.7966 128.358 17.7901 128.326 17.79 128.293V104.564C17.79 104.501 17.8145 104.441 17.8583 104.396C17.9021 104.351 17.9618 104.325 18.0248 104.323L39.5817 103.633C39.6142 103.631 39.6467 103.636 39.6771 103.648C39.7074 103.66 39.735 103.678 39.758 103.701C39.7812 103.723 39.7996 103.75 39.8122 103.78C39.8248 103.81 39.8314 103.842 39.8316 103.874V127.725C39.8316 127.788 39.807 127.848 39.7629 127.893C39.7189 127.938 39.6589 127.964 39.5958 127.966L18.0388 128.534H18.0323ZM18.28 104.797V128.05L39.3524 127.49V104.123L18.28 104.797Z" fill="#E30613"/>
<path id="Vector_75" d="M27.2793 104.642V107.653L30.6508 107.713L30.72 104.521L27.2793 104.642Z" fill="#E30613"/>
<path id="Vector_76" d="M23.1476 122.921C23.0847 122.921 23.0243 122.897 22.9788 122.854C22.9556 122.831 22.9371 122.804 22.9244 122.774C22.9118 122.745 22.9053 122.713 22.9053 122.68V111.203C22.9052 111.14 22.9297 111.079 22.9735 111.034C23.0173 110.989 23.077 110.963 23.14 110.96L35.0379 110.6C35.0704 110.599 35.1028 110.604 35.1331 110.616C35.1634 110.627 35.191 110.645 35.2143 110.668C35.2375 110.69 35.256 110.717 35.2686 110.747C35.2813 110.777 35.2878 110.809 35.2878 110.841V122.319C35.2878 122.381 35.2634 122.441 35.2195 122.487C35.1757 122.532 35.116 122.558 35.0531 122.56L23.1551 122.921H23.1476ZM23.3898 111.436V122.432L34.8011 122.085V111.095L23.3898 111.436Z" fill="#E30613"/>
<path id="Vector_77" d="M33.3211 120.772L24.8682 121.029V119.65L33.3211 119.394V120.772Z" fill="#E30613"/>
<path id="Vector_78" d="M26.1055 118.111V113.382L27.5343 113.339V118.068L26.1055 118.111Z" fill="#E30613"/>
<path id="Vector_79" d="M24.9268 114.331L26.8207 112.446L28.7136 114.216L24.9268 114.331Z" fill="#E30613"/>
<path id="Vector_80" d="M30.6553 117.973V113.243L32.0841 113.2V117.929L30.6553 117.973Z" fill="#E30613"/>
<path id="Vector_81" d="M29.4766 114.192L31.3694 112.308L33.2634 114.077L29.4766 114.192Z" fill="#E30613"/>
<path id="Vector_82" d="M62.7349 160.414H58.2786C56.456 160.414 54.9785 164.768 54.9785 170.086C54.9785 175.404 56.456 179.761 58.2786 179.761H62.7349C64.5575 179.761 66.035 175.404 66.035 170.087C66.035 164.77 64.5607 160.414 62.7349 160.414Z" fill="#E30613"/>
<path id="Vector_83" d="M58.2786 179.603C60.1012 179.603 61.5786 175.292 61.5786 169.974C61.5786 164.657 60.1012 160.346 58.2786 160.346C56.456 160.346 54.9785 164.657 54.9785 169.974C54.9785 175.292 56.456 179.603 58.2786 179.603Z" fill="#E6E7E9"/>
<path id="Vector_84" d="M58.2787 179.845C56.2917 179.845 54.7363 175.509 54.7363 169.974C54.7363 164.44 56.2917 160.105 58.2787 160.105C60.2656 160.105 61.8199 164.44 61.8199 169.974C61.8199 175.509 60.2646 179.845 58.2787 179.845ZM58.2787 160.587C56.8012 160.587 55.2209 164.355 55.2209 169.974C55.2209 175.594 56.8012 179.361 58.2787 179.361C59.7562 179.361 61.3354 175.594 61.3354 169.974C61.3354 164.355 59.7551 160.587 58.2787 160.587Z" fill="#E30613"/>
<path id="Vector_85" d="M76.6304 160.711H71.9989C70.106 160.711 68.5723 165.232 68.5723 170.756C68.5723 176.279 70.106 180.803 71.9989 180.803H76.6304C78.5233 180.803 80.0571 176.282 80.0571 170.757C80.0571 165.232 78.5265 160.711 76.6304 160.711Z" fill="#E30613"/>
<path id="Vector_86" d="M71.9989 180.639C73.8914 180.639 75.4255 176.162 75.4255 170.64C75.4255 165.117 73.8914 160.64 71.9989 160.64C70.1064 160.64 68.5723 165.117 68.5723 170.64C68.5723 176.162 70.1064 180.639 71.9989 180.639Z" fill="#E6E7E9"/>
<path id="Vector_87" d="M71.999 180.88C69.9439 180.88 68.3301 176.383 68.3301 170.64C68.3301 164.897 69.9417 160.399 71.999 160.399C74.0562 160.399 75.6679 164.898 75.6679 170.64C75.6679 176.382 74.0562 180.88 71.999 180.88ZM71.999 160.882C70.4609 160.882 68.8147 164.803 68.8147 170.64C68.8147 176.476 70.4609 180.398 71.999 180.398C73.5371 180.398 75.1833 176.476 75.1833 170.64C75.1833 164.803 73.5371 160.882 71.999 160.882Z" fill="#E30613"/>
<path id="Vector_88" d="M14.0144 159.204H10.1919C8.6289 159.204 7.3623 162.806 7.3623 167.305C7.3623 171.803 8.6289 175.408 10.1919 175.408H14.0144C15.5773 175.408 16.8428 171.804 16.8428 167.306C16.8428 162.807 15.5751 159.204 14.0144 159.204Z" fill="#E30613"/>
<path id="Vector_89" d="M10.1927 175.314C11.7549 175.314 13.0212 171.667 13.0212 167.168C13.0212 162.669 11.7549 159.022 10.1927 159.022C8.63061 159.022 7.36426 162.669 7.36426 167.168C7.36426 171.667 8.63061 175.314 10.1927 175.314Z" fill="#E6E7E9"/>
<path id="Vector_90" d="M10.192 175.555C8.47 175.555 7.12012 171.871 7.12012 167.168C7.12012 162.465 8.47 158.784 10.192 158.784C11.9139 158.784 13.2627 162.468 13.2627 167.171C13.2627 171.874 11.9139 175.555 10.192 175.555ZM10.192 159.263C8.94267 159.263 7.60469 162.44 7.60469 167.168C7.60469 171.896 8.94267 175.073 10.192 175.073C11.4412 175.073 12.7781 171.897 12.7781 167.168C12.7781 162.439 11.4402 159.263 10.192 159.263Z" fill="#E30613"/>
<path id="Vector_91" d="M21.2575 159.688H17.4339C15.8721 159.688 14.6055 163.289 14.6055 167.789C14.6055 172.289 15.8721 175.891 17.4339 175.891H21.2575C22.8194 175.891 24.086 172.289 24.086 167.789C24.086 163.289 22.8226 159.688 21.2575 159.688Z" fill="#E30613"/>
<path id="Vector_92" d="M17.4339 175.797C18.9961 175.797 20.2624 172.15 20.2624 167.651C20.2624 163.152 18.9961 159.505 17.4339 159.505C15.8718 159.505 14.6055 163.152 14.6055 167.651C14.6055 172.15 15.8718 175.797 17.4339 175.797Z" fill="#E6E7E9"/>
<path id="Vector_93" d="M17.434 176.039C15.7121 176.039 14.3633 172.354 14.3633 167.651C14.3633 162.948 15.7121 159.264 17.434 159.264C19.156 159.264 20.5048 162.949 20.5048 167.651C20.5048 172.353 19.156 176.039 17.434 176.039ZM17.434 159.746C16.1848 159.746 14.8479 162.923 14.8479 167.651C14.8479 172.379 16.1848 175.557 17.434 175.557C18.6833 175.557 20.0202 172.38 20.0202 167.651C20.0202 162.922 18.6833 159.746 17.434 159.746Z" fill="#E30613"/>
<path id="Vector_94" d="M28.8136 159.688H24.844C23.2215 159.688 21.9062 163.539 21.9062 168.272C21.9062 173.006 23.2215 176.859 24.844 176.859H28.8136C30.436 176.859 31.7513 173.007 31.7513 168.273C31.7513 163.54 30.436 159.688 28.8136 159.688Z" fill="#E30613"/>
<path id="Vector_95" d="M24.8439 176.705C26.4657 176.705 27.7805 172.868 27.7805 168.135C27.7805 163.402 26.4657 159.565 24.8439 159.565C23.222 159.565 21.9072 163.402 21.9072 168.135C21.9072 172.868 23.222 176.705 24.8439 176.705Z" fill="#E6E7E9"/>
<path id="Vector_96" d="M24.8439 176.947C23.0603 176.947 21.6639 173.072 21.6639 168.135C21.6639 163.198 23.0603 159.323 24.8439 159.323C26.6276 159.323 28.0229 163.198 28.0229 168.134C28.0229 173.069 26.6265 176.947 24.8439 176.947ZM24.8439 159.806C23.546 159.806 22.1485 163.153 22.1485 168.135C22.1485 173.117 23.5417 176.464 24.8439 176.464C26.1462 176.464 27.5383 173.117 27.5383 168.135C27.5383 163.153 26.1451 159.806 24.8439 159.806Z" fill="#E30613"/>
<path id="Vector_97" d="M70.5312 157.584L24.0847 157.23C24.0205 157.23 23.9588 157.204 23.9134 157.159C23.868 157.114 23.8424 157.053 23.8424 156.989C23.8424 156.925 23.868 156.863 23.9134 156.818C23.9588 156.773 24.0205 156.747 24.0847 156.747L70.2856 157.099V98.247L0.484572 102.564V156.567L8.56546 156.629C8.62971 156.629 8.69134 156.654 8.73678 156.7C8.78221 156.745 8.80774 156.806 8.80774 156.87C8.80774 156.934 8.78221 156.995 8.73678 157.041C8.69134 157.086 8.62971 157.111 8.56546 157.111L0.243368 157.048C0.211459 157.048 0.179837 157.042 0.150317 157.03C0.120796 157.018 0.0939589 157 0.0713459 156.978C0.0487329 156.955 0.0307894 156.929 0.0185458 156.899C0.00630225 156.87 -3.17957e-07 156.838 0 156.807L0 102.336C0.000136843 102.274 0.0236609 102.215 0.0658213 102.17C0.107982 102.126 0.165637 102.099 0.227143 102.094L70.516 97.7465C70.5491 97.7447 70.5822 97.7494 70.6134 97.7605C70.6446 97.7716 70.6733 97.7888 70.6977 97.8111C70.7217 97.8336 70.7408 97.8608 70.7538 97.891C70.7668 97.9212 70.7735 97.9537 70.7734 97.9865V157.34C70.7734 157.403 70.7479 157.465 70.7025 157.51C70.657 157.555 70.5954 157.581 70.5312 157.581V157.584Z" fill="#E30613"/>
<path id="Vector_98" d="M101.701 151.828L104.542 154.366L105.567 173.312H121.606V151.88L101.701 151.828Z" fill="#E6E7E9"/>
<path id="Vector_99" d="M121.606 173.553H105.568C105.506 173.553 105.446 173.529 105.401 173.486C105.356 173.444 105.329 173.386 105.326 173.325L104.306 154.478L101.539 152.002C101.502 151.97 101.476 151.927 101.465 151.879C101.453 151.832 101.456 151.782 101.474 151.736C101.492 151.69 101.523 151.651 101.563 151.624C101.604 151.596 101.652 151.581 101.701 151.581L121.603 151.633C121.667 151.633 121.729 151.659 121.774 151.704C121.819 151.749 121.844 151.81 121.844 151.874V173.317C121.843 173.379 121.817 173.439 121.773 173.483C121.729 173.526 121.669 173.552 121.606 173.553ZM105.796 173.07H121.36V152.121L102.331 152.071L104.699 154.186C104.723 154.208 104.742 154.233 104.756 154.262C104.77 154.291 104.778 154.322 104.779 154.353L105.796 173.07Z" fill="#E30613"/>
<path id="Vector_100" d="M120.494 156.982H114.508C112.061 156.982 110.073 162.785 110.073 169.922C110.073 177.059 112.056 182.865 114.508 182.865H120.494C122.939 182.865 124.928 177.061 124.928 169.924C124.928 162.787 122.938 156.982 120.494 156.982Z" fill="#E30613"/>
<path id="Vector_101" d="M114.505 182.659C116.952 182.659 118.935 176.873 118.935 169.735C118.935 162.598 116.952 156.812 114.505 156.812C112.059 156.812 110.076 162.598 110.076 169.735C110.076 176.873 112.059 182.659 114.505 182.659Z" fill="#E6E7E9"/>
<path id="Vector_102" d="M114.505 182.898C111.887 182.898 109.835 177.116 109.835 169.734C109.835 162.353 111.89 156.57 114.505 156.57C117.121 156.57 119.177 162.352 119.177 169.734C119.177 177.117 117.125 182.898 114.505 182.898ZM114.505 157.052C112.234 157.052 110.32 162.86 110.32 169.734C110.32 176.609 112.237 182.415 114.505 182.415C116.774 182.415 118.692 176.602 118.692 169.734C118.692 162.866 116.775 157.053 114.505 157.053V157.052Z" fill="#E30613"/>
<path id="Vector_103" d="M145.118 124.706H145.523C145.917 124.706 146.294 124.862 146.572 125.139C146.85 125.415 147.006 125.791 147.006 126.182V132.625C147.006 132.939 146.881 133.24 146.658 133.462C146.435 133.684 146.132 133.809 145.816 133.809H144.917C144.67 133.809 144.433 133.712 144.259 133.538C144.084 133.364 143.986 133.129 143.986 132.883V125.838C143.986 125.538 144.105 125.251 144.317 125.039C144.529 124.827 144.817 124.707 145.118 124.706Z" fill="#E30613"/>
<path id="Vector_104" d="M158.497 154.172H152.51C150.065 154.172 148.082 159.975 148.082 167.112C148.082 174.249 150.065 180.055 152.51 180.055H158.497C160.943 180.055 162.925 174.251 162.925 167.114C162.925 159.977 160.947 154.172 158.497 154.172Z" fill="#E30613"/>
<path id="Vector_105" d="M152.51 179.849C154.957 179.849 156.94 174.063 156.94 166.926C156.94 159.788 154.957 154.002 152.51 154.002C150.064 154.002 148.081 159.788 148.081 166.926C148.081 174.063 150.064 179.849 152.51 179.849Z" fill="#E6E7E9"/>
<path id="Vector_106" d="M152.51 180.089C149.892 180.089 147.84 174.307 147.84 166.926C147.84 159.544 149.895 153.761 152.51 153.761C155.126 153.761 157.182 159.543 157.182 166.926C157.182 174.308 155.13 180.089 152.51 180.089ZM152.51 154.243C150.239 154.243 148.324 160.057 148.324 166.926C148.324 173.795 150.241 179.607 152.51 179.607C154.78 179.607 156.697 173.794 156.697 166.926C156.697 160.058 154.782 154.243 152.51 154.243Z" fill="#E30613"/>
<path id="Vector_107" d="M72.7509 157.446L103.324 157.902L103.441 173.169H105.812C105.769 171.183 105.737 169.283 105.737 167.931C105.737 159.79 109.568 153.191 114.293 153.191C117.378 153.191 120.082 156.006 121.587 160.226C127.549 160.517 136.68 160.372 145.514 160.091C158.871 159.66 171.543 158.933 171.543 158.933C171.712 151.842 164.602 148.915 164.602 148.915C164.602 148.915 163.913 143.131 162.904 142.126C161.895 141.122 145.794 135.436 145.794 135.436L138.412 116.827C137.648 114.988 136.564 113.297 135.211 111.831C131.882 108.247 125.476 103.845 113.886 103.299C112.109 103.215 89.9824 101.452 78.9259 100.952C76.865 100.868 74.8008 100.94 72.7509 101.168V157.446Z" fill="#E6E7E9"/>
<path id="Vector_108" d="M168.626 151.687L168.148 152.07C167.731 152.403 167.386 152.817 167.134 153.286C166.881 153.756 166.727 154.271 166.679 154.801L166.571 156.044C166.555 156.229 166.58 156.415 166.642 156.589C166.705 156.763 166.804 156.922 166.934 157.055C167.064 157.188 167.221 157.291 167.394 157.358C167.568 157.425 167.754 157.454 167.939 157.444L171.438 157.228C171.087 154.829 169.905 153.004 168.626 151.687Z" fill="#E6E7E9"/>
<path id="Vector_109" d="M167.858 157.687C167.645 157.687 167.434 157.643 167.239 157.557C167.044 157.472 166.869 157.347 166.725 157.191C166.582 157.034 166.472 156.85 166.404 156.649C166.336 156.448 166.31 156.235 166.329 156.024L166.437 154.782C166.489 154.219 166.653 153.673 166.92 153.175C167.188 152.676 167.553 152.237 167.994 151.882L168.472 151.498C168.519 151.462 168.578 151.443 168.638 151.447C168.698 151.451 168.754 151.476 168.797 151.519C170.396 153.169 171.364 155.078 171.674 157.193C171.679 157.226 171.676 157.26 171.668 157.292C171.659 157.324 171.643 157.354 171.622 157.38C171.601 157.406 171.574 157.427 171.545 157.442C171.515 157.458 171.482 157.467 171.449 157.469L167.95 157.684L167.858 157.687ZM168.604 152.014L168.3 152.257C167.91 152.572 167.586 152.961 167.35 153.402C167.113 153.842 166.968 154.326 166.922 154.824L166.814 156.067C166.801 156.217 166.82 156.368 166.871 156.51C166.922 156.652 167.003 156.781 167.108 156.889C167.214 156.996 167.341 157.08 167.483 157.135C167.624 157.189 167.775 157.212 167.926 157.203L171.159 157.004C170.835 155.161 169.978 153.483 168.604 152.014Z" fill="#E30613"/>
<path id="Vector_110" d="M138.189 143.009L111.408 135.436L105.304 116.078C104.55 113.649 103.263 111.416 101.537 109.541C97.5495 105.251 89.1614 99.7918 72.7509 101.17V157.446L103.199 157.769L103.441 172.969L105.811 173.31C105.768 171.323 105.737 169.282 105.737 167.928C105.737 159.786 109.568 153.187 114.293 153.187C117.378 153.187 120.082 156.002 121.587 160.222C127.549 160.514 136.68 160.369 145.515 160.088C146.38 160.061 148.082 160.003 148.082 160.003L142.279 146.581C141.907 145.721 141.346 144.954 140.639 144.336C139.931 143.718 139.094 143.265 138.189 143.009Z" fill="#E6E7E9"/>
<path id="Vector_111" d="M139.638 143.862C139.595 143.861 139.553 143.85 139.516 143.829C139.078 143.577 138.611 143.379 138.124 143.242L111.339 135.668C111.301 135.657 111.265 135.637 111.236 135.609C111.207 135.581 111.186 135.546 111.174 135.508L105.067 116.155C104.32 113.761 103.053 111.56 101.355 109.709C98.7285 106.881 95.304 104.714 91.1776 103.265C91.1169 103.243 91.0672 103.199 91.0394 103.141C91.0116 103.083 91.008 103.017 91.0294 102.957C91.0508 102.896 91.0954 102.847 91.1534 102.819C91.2114 102.792 91.2781 102.788 91.3388 102.809C95.5409 104.284 99.0302 106.495 101.711 109.376C103.457 111.28 104.761 113.543 105.53 116.005L111.596 135.239L138.255 142.774C138.78 142.923 139.285 143.136 139.757 143.408C139.803 143.435 139.839 143.476 139.86 143.525C139.88 143.574 139.884 143.628 139.87 143.68C139.856 143.731 139.826 143.776 139.783 143.809C139.741 143.841 139.689 143.858 139.636 143.858L139.638 143.862Z" fill="#E30613"/>
<path id="Vector_112" d="M105.811 173.553H105.796L103.427 173.412C103.366 173.408 103.308 173.382 103.266 173.337C103.223 173.293 103.2 173.234 103.199 173.173L103.08 157.725C103.08 157.681 103.092 157.638 103.114 157.6C103.785 156.469 109.917 146.512 118.542 145.127C122.905 144.427 127.323 144.968 131.67 146.735C137.349 149.041 142.932 153.454 148.264 159.852C148.293 159.887 148.312 159.929 148.318 159.973C148.324 160.018 148.318 160.064 148.299 160.105C148.28 160.146 148.251 160.181 148.213 160.206C148.175 160.231 148.131 160.245 148.086 160.246C147.236 160.276 146.38 160.305 145.519 160.332C134.784 160.674 126.727 160.719 121.571 160.467C121.523 160.465 121.476 160.448 121.438 160.42C121.399 160.391 121.37 160.352 121.354 160.306C119.818 156 117.178 153.432 114.289 153.432C109.705 153.432 105.976 159.936 105.976 167.93C105.976 169.209 106.003 171.219 106.049 173.306C106.05 173.34 106.043 173.373 106.031 173.403C106.018 173.434 105.999 173.462 105.975 173.485C105.931 173.528 105.872 173.552 105.811 173.553ZM103.683 172.942L105.562 173.05C105.52 171.053 105.495 169.153 105.495 167.925C105.495 159.665 109.442 152.944 114.293 152.944C117.361 152.944 120.145 155.574 121.757 159.988C126.906 160.23 134.894 160.183 145.504 159.845C146.198 159.823 146.888 159.8 147.575 159.777C138.28 148.778 128.538 144.008 118.62 145.597C110.342 146.922 104.377 156.431 103.567 157.783L103.683 172.942Z" fill="#E30613"/>
<path id="Vector_113" d="M106.623 136.198H95.5556C95.5238 136.198 95.4923 136.192 95.4629 136.18C95.4335 136.168 95.4068 136.15 95.3843 136.127C95.3618 136.105 95.344 136.078 95.3318 136.049C95.3196 136.02 95.3134 135.989 95.3134 135.957V122.557C95.3134 122.525 95.3196 122.494 95.3318 122.464C95.344 122.435 95.3618 122.408 95.3843 122.386C95.4068 122.364 95.4335 122.346 95.4629 122.334C95.4923 122.322 95.5238 122.315 95.5556 122.315H103.668C104.03 122.316 104.382 122.435 104.67 122.654C104.958 122.872 105.165 123.179 105.261 123.526C105.888 125.824 107.302 131.277 108.089 134.317C108.146 134.54 108.151 134.772 108.104 134.997C108.057 135.222 107.959 135.433 107.818 135.615C107.677 135.796 107.495 135.943 107.288 136.044C107.081 136.145 106.854 136.198 106.623 136.198ZM95.7979 135.716H106.623C106.78 135.716 106.935 135.68 107.076 135.611C107.217 135.543 107.34 135.443 107.436 135.319C107.532 135.196 107.599 135.052 107.63 134.899C107.662 134.746 107.658 134.588 107.619 134.437C106.833 131.395 105.42 125.948 104.794 123.654C104.727 123.407 104.581 123.189 104.377 123.034C104.174 122.878 103.924 122.793 103.668 122.792H95.7979V135.716Z" fill="#E30613"/>
<path id="Vector_114" d="M164.574 151.202C164.705 149.592 164.601 147.971 164.268 146.39C163.901 144.659 163.32 142.74 162.662 142.126C162.204 141.696 161.918 141.547 160.785 141.065H145.084C144.496 141.065 143.917 141.204 143.393 141.471C142.87 141.737 142.418 142.124 142.074 142.599C141.607 143.242 141.295 143.984 141.162 144.766C141.028 145.548 141.076 146.35 141.303 147.111L143.016 152.867C143.161 153.358 143.462 153.789 143.874 154.095C144.286 154.402 144.787 154.567 145.301 154.566H161.85C162.521 154.567 163.166 154.315 163.658 153.863C164.15 153.41 164.453 152.79 164.506 152.125L164.574 151.202Z" fill="#E6E7E9"/>
<path id="Vector_115" d="M161.845 154.807H145.296C144.73 154.805 144.18 154.622 143.727 154.285C143.274 153.948 142.941 153.475 142.778 152.935L141.065 147.179C140.831 146.383 140.782 145.544 140.922 144.726C141.061 143.908 141.386 143.133 141.871 142.458C142.238 141.953 142.72 141.541 143.278 141.257C143.835 140.973 144.452 140.825 145.078 140.824H160.785C160.818 140.824 160.85 140.83 160.88 140.843C161.996 141.319 162.333 141.489 162.827 141.95C163.637 142.703 164.226 145.024 164.505 146.341C164.843 147.944 164.948 149.588 164.816 151.221L164.743 152.144C164.681 152.868 164.35 153.543 163.814 154.036C163.277 154.529 162.575 154.804 161.845 154.807ZM145.08 141.306C144.53 141.307 143.989 141.437 143.5 141.687C143.011 141.936 142.589 142.297 142.267 142.74C141.824 143.355 141.528 144.062 141.401 144.808C141.273 145.555 141.318 146.32 141.532 147.046L143.245 152.802C143.378 153.242 143.649 153.628 144.019 153.903C144.389 154.178 144.838 154.327 145.3 154.328H161.849C162.457 154.325 163.043 154.096 163.489 153.685C163.936 153.274 164.212 152.712 164.263 152.109L164.337 151.186C164.465 149.599 164.363 148.001 164.034 146.443C163.586 144.33 163.013 142.783 162.5 142.305C162.084 141.917 161.851 141.783 160.739 141.309L145.08 141.306Z" fill="#E30613"/>
<path id="Vector_116" d="M95.3706 121.691H97.6345C97.8292 121.691 98.0221 121.729 98.202 121.804C98.3819 121.878 98.5454 121.986 98.6831 122.123C98.8208 122.26 98.93 122.423 99.0046 122.602C99.0791 122.781 99.1174 122.973 99.1174 123.167V129.606C99.1174 129.92 98.9921 130.221 98.7689 130.443C98.5458 130.665 98.2432 130.79 97.9276 130.79H95.1695C94.9228 130.79 94.6862 130.692 94.5117 130.519C94.3373 130.345 94.2393 130.109 94.2393 129.864V122.818C94.2398 122.52 94.3592 122.234 94.5712 122.022C94.7832 121.811 95.0707 121.692 95.3706 121.691Z" fill="#E30613"/>
<path id="Vector_117" d="M95.3706 131.656H97.6345C98.0278 131.656 98.405 131.812 98.6831 132.089C98.9612 132.365 99.1174 132.741 99.1174 133.132V135.341C99.1174 135.655 98.9921 135.956 98.7689 136.178C98.5458 136.401 98.2432 136.525 97.9276 136.525H95.1695C95.0473 136.525 94.9263 136.501 94.8135 136.455C94.7006 136.408 94.5981 136.34 94.5117 136.254C94.4253 136.168 94.3568 136.066 94.3101 135.954C94.2633 135.841 94.2393 135.721 94.2393 135.599V132.787C94.239 132.487 94.3579 132.2 94.5701 131.989C94.7822 131.777 95.0701 131.657 95.3706 131.656Z" fill="#E30613"/>
<path id="Vector_118" d="M128.414 175.12L166.61 173.337C167.605 173.291 168.55 172.889 169.27 172.204C169.991 171.52 170.439 170.6 170.532 169.613L171.542 158.933L121.586 160.224L124.004 171.721C124.214 172.717 124.772 173.606 125.581 174.229C126.389 174.852 127.393 175.168 128.414 175.12Z" fill="#E6E7E9"/>
<path id="Vector_119" d="M128.207 175.362C127.165 175.363 126.154 175.006 125.346 174.351C124.538 173.696 123.982 172.784 123.772 171.768L121.355 160.271C121.348 160.236 121.348 160.2 121.356 160.166C121.364 160.132 121.379 160.099 121.402 160.072C121.424 160.044 121.452 160.022 121.483 160.006C121.515 159.99 121.55 159.981 121.585 159.98L171.542 158.688C171.576 158.688 171.61 158.694 171.642 158.707C171.673 158.721 171.702 158.74 171.725 158.765C171.749 158.79 171.766 158.82 171.777 158.852C171.789 158.885 171.793 158.919 171.789 158.953L170.779 169.633C170.676 170.676 170.201 171.648 169.439 172.372C168.677 173.095 167.68 173.523 166.628 173.576L128.427 175.362C128.353 175.362 128.282 175.362 128.207 175.362ZM128.404 174.876L128.415 175.116L128.404 174.876L166.6 173.102C167.535 173.054 168.422 172.674 169.1 172.031C169.777 171.387 170.2 170.523 170.291 169.595L171.276 159.186L121.884 160.465L124.242 171.678C124.438 172.618 124.965 173.458 125.728 174.045C126.492 174.632 127.441 174.928 128.404 174.88V174.876Z" fill="#E30613"/>
<path id="Vector_120" d="M141.202 135.174H141.153L115.086 134.421C114.575 134.407 114.081 134.231 113.676 133.92C113.271 133.609 112.975 133.178 112.832 132.689L109.595 121.716C109.531 121.5 109.52 121.271 109.563 121.05C109.606 120.828 109.702 120.62 109.842 120.443C109.983 120.266 110.164 120.125 110.37 120.032C110.577 119.939 110.802 119.896 111.029 119.907L136.16 120.457C136.682 120.466 137.189 120.632 137.614 120.932C138.04 121.233 138.365 121.654 138.547 122.141L142.646 133.023C142.743 133.26 142.781 133.517 142.755 133.772C142.729 134.027 142.64 134.271 142.497 134.484C142.353 134.697 142.159 134.871 141.932 134.992C141.705 135.112 141.452 135.175 141.195 135.176L141.202 135.174ZM110.966 120.383C110.821 120.383 110.677 120.416 110.547 120.48C110.416 120.545 110.303 120.638 110.215 120.754C110.128 120.87 110.069 121.004 110.043 121.147C110.017 121.29 110.025 121.436 110.066 121.575L113.304 132.547C113.418 132.938 113.654 133.283 113.978 133.532C114.302 133.781 114.697 133.921 115.107 133.932L141.174 134.692C141.356 134.7 141.537 134.66 141.699 134.578C141.862 134.496 142 134.374 142.101 134.223C142.204 134.074 142.268 133.902 142.287 133.723C142.306 133.543 142.279 133.361 142.209 133.195L138.105 122.306C137.957 121.909 137.692 121.565 137.345 121.32C136.998 121.075 136.584 120.941 136.158 120.933L111.021 120.384L110.966 120.383Z" fill="#E30613"/>
<path id="Vector_121" d="M121.296 130.07H112.25C112.198 130.07 112.147 130.053 112.105 130.021C112.063 129.99 112.032 129.946 112.017 129.896L109.602 121.715C109.539 121.498 109.528 121.27 109.571 121.048C109.614 120.827 109.71 120.619 109.85 120.442C109.991 120.265 110.172 120.124 110.378 120.031C110.584 119.937 110.81 119.895 111.037 119.906L136.167 120.455C136.689 120.465 137.196 120.631 137.622 120.931C138.048 121.232 138.373 121.653 138.555 122.14L139.621 124.971C139.634 125.008 139.638 125.047 139.633 125.085C139.628 125.123 139.614 125.16 139.592 125.191C139.569 125.223 139.54 125.249 139.505 125.267C139.471 125.285 139.433 125.294 139.394 125.294H132.865C131.823 125.291 130.791 125.494 129.829 125.891C128.866 126.288 127.993 126.87 127.258 127.606C126.478 128.389 125.549 129.01 124.525 129.433C123.502 129.856 122.404 130.072 121.296 130.07ZM112.427 129.587H121.296C122.338 129.59 123.369 129.387 124.332 128.991C125.294 128.594 126.168 128.011 126.902 127.276C127.682 126.492 128.611 125.871 129.635 125.447C130.659 125.024 131.757 124.807 132.865 124.81H139.043L138.1 122.306C137.952 121.909 137.687 121.565 137.34 121.32C136.992 121.075 136.579 120.941 136.153 120.933L111.016 120.384C110.866 120.375 110.717 120.402 110.58 120.463C110.443 120.524 110.322 120.617 110.229 120.733C110.135 120.85 110.072 120.987 110.043 121.134C110.014 121.28 110.021 121.432 110.063 121.575L112.427 129.587Z" fill="#E30613"/>
<path id="Vector_122" d="M141.202 135.174H141.153L115.086 134.421C114.575 134.407 114.081 134.231 113.676 133.92C113.271 133.609 112.975 133.178 112.832 132.689L109.595 121.716C109.531 121.5 109.52 121.271 109.563 121.05C109.606 120.828 109.702 120.62 109.842 120.443C109.983 120.266 110.164 120.125 110.37 120.032C110.577 119.939 110.802 119.896 111.029 119.907L136.16 120.457C136.682 120.466 137.189 120.632 137.614 120.932C138.04 121.233 138.365 121.654 138.547 122.141L142.646 133.023C142.743 133.26 142.781 133.517 142.755 133.772C142.729 134.027 142.64 134.271 142.497 134.484C142.353 134.697 142.159 134.871 141.932 134.992C141.705 135.112 141.452 135.175 141.195 135.176L141.202 135.174ZM110.966 120.383C110.821 120.383 110.677 120.416 110.547 120.48C110.416 120.545 110.303 120.638 110.215 120.754C110.128 120.87 110.069 121.004 110.043 121.147C110.017 121.29 110.025 121.436 110.066 121.575L113.304 132.547C113.418 132.938 113.654 133.283 113.978 133.532C114.302 133.781 114.697 133.921 115.107 133.932L141.174 134.692C141.356 134.7 141.537 134.66 141.699 134.578C141.862 134.496 142 134.374 142.101 134.223C142.204 134.074 142.268 133.902 142.287 133.723C142.306 133.543 142.279 133.361 142.209 133.195L138.105 122.306C137.957 121.909 137.692 121.565 137.345 121.32C136.998 121.075 136.584 120.941 136.158 120.933L111.021 120.384L110.966 120.383Z" fill="#E30613"/>
<path id="Vector_123" d="M141.826 156.961L137.563 154.239C135.739 153.074 133.617 152.455 131.45 152.455H130.407C129.69 152.455 129.002 152.739 128.495 153.244C127.988 153.748 127.703 154.433 127.703 155.147V155.201C127.703 155.983 128.015 156.732 128.57 157.284C129.125 157.836 129.878 158.147 130.662 158.147H141.479C141.618 158.145 141.753 158.099 141.863 158.015C141.974 157.931 142.055 157.814 142.094 157.682C142.133 157.549 142.128 157.407 142.079 157.277C142.031 157.147 141.942 157.036 141.826 156.961Z" fill="#E6E7E9"/>
<path id="Vector_124" d="M141.478 158.391H130.662C129.813 158.39 128.999 158.054 128.399 157.457C127.799 156.859 127.461 156.05 127.46 155.205V155.15C127.461 154.372 127.771 153.625 128.324 153.075C128.877 152.525 129.627 152.215 130.408 152.214H131.451C133.665 152.213 135.833 152.845 137.695 154.036L141.958 156.758C142.12 156.862 142.244 157.015 142.311 157.194C142.378 157.374 142.385 157.57 142.331 157.754C142.277 157.938 142.165 158.099 142.011 158.214C141.857 158.329 141.669 158.391 141.477 158.391H141.478ZM130.41 152.697C129.756 152.697 129.13 152.956 128.668 153.416C128.206 153.876 127.946 154.5 127.946 155.15V155.205C127.946 155.922 128.233 156.609 128.742 157.116C129.252 157.623 129.942 157.908 130.663 157.909H141.479C141.566 157.908 141.651 157.879 141.721 157.827C141.791 157.774 141.841 157.7 141.866 157.617C141.89 157.533 141.886 157.444 141.856 157.362C141.825 157.281 141.769 157.211 141.695 157.164L137.433 154.443C135.648 153.302 133.571 152.695 131.45 152.697H130.41Z" fill="#E30613"/>
<path id="Vector_125" d="M105.813 173.411H103.441C103.377 173.411 103.316 173.385 103.27 173.341C103.225 173.296 103.199 173.235 103.198 173.172L103.08 158.138L72.7429 157.685C72.6793 157.684 72.6185 157.658 72.5737 157.613C72.529 157.568 72.5039 157.507 72.5039 157.444V101.17C72.5038 101.11 72.5259 101.053 72.5658 101.008C72.6058 100.964 72.6608 100.936 72.7202 100.93L73.0242 100.901C74.9842 100.691 76.9572 100.628 78.9266 100.711C86.8972 101.071 100.837 102.104 108.327 102.66C111.269 102.875 113.395 103.035 113.887 103.058C125.552 103.607 132.012 108.043 135.379 111.67C136.752 113.156 137.85 114.871 138.624 116.737L145.966 135.253C148.021 135.985 161.846 140.947 162.825 141.966C164.436 143.644 164.772 147.894 164.823 148.761C165.837 149.231 171.93 152.334 171.773 158.945C171.771 159.005 171.747 159.063 171.705 159.106C171.662 159.149 171.605 159.176 171.545 159.179C171.418 159.187 158.717 159.919 145.511 160.339C134.776 160.68 126.719 160.725 121.562 160.473C121.514 160.471 121.468 160.454 121.43 160.426C121.391 160.397 121.362 160.358 121.346 160.313C119.81 156.007 117.17 153.438 114.281 153.438C109.697 153.438 105.967 159.942 105.967 167.937C105.967 169.14 105.993 170.901 106.043 173.171C106.044 173.203 106.038 173.235 106.026 173.264C106.014 173.294 105.997 173.322 105.974 173.345C105.952 173.368 105.925 173.386 105.895 173.398C105.865 173.411 105.833 173.417 105.801 173.417L105.813 173.411ZM103.681 172.928H105.567C105.521 170.775 105.497 169.094 105.497 167.93C105.497 159.67 109.444 152.95 114.295 152.95C117.362 152.95 120.147 155.579 121.758 159.993C126.908 160.235 134.896 160.188 145.506 159.85C157.739 159.461 169.538 158.805 171.302 158.705C171.313 152.016 164.577 149.166 164.509 149.138C164.465 149.12 164.428 149.09 164.402 149.052C164.375 149.014 164.36 148.969 164.358 148.922C164.358 148.873 164.12 143.993 162.485 142.29C161.79 141.566 152.072 137.928 145.71 135.66C145.677 135.648 145.648 135.63 145.623 135.606C145.598 135.582 145.579 135.553 145.566 135.521L138.186 116.913C137.433 115.1 136.365 113.435 135.031 111.992C131.727 108.433 125.373 104.077 113.873 103.537C113.375 103.513 111.245 103.355 108.299 103.136C100.812 102.582 86.8831 101.55 78.9137 101.19C76.9676 101.108 75.0182 101.171 73.0815 101.377L72.9917 101.386V157.205L103.327 157.658C103.39 157.66 103.451 157.685 103.495 157.73C103.539 157.775 103.565 157.835 103.565 157.898L103.681 172.928Z" fill="#E30613"/>
<path id="Vector_126" d="M145.495 144.918C145.431 144.918 145.369 144.892 145.324 144.847C145.278 144.802 145.253 144.741 145.253 144.677C145.253 144.613 145.278 144.551 145.324 144.506C145.369 144.461 145.431 144.435 145.495 144.435L159.907 144.194C159.971 144.194 160.033 144.22 160.078 144.265C160.124 144.31 160.149 144.372 160.149 144.435C160.149 144.499 160.124 144.561 160.078 144.606C160.033 144.651 159.971 144.677 159.907 144.677L145.495 144.918Z" fill="#E30613"/>
<path id="Vector_127" d="M145.495 148.057C145.431 148.057 145.369 148.032 145.324 147.986C145.278 147.941 145.253 147.88 145.253 147.816C145.253 147.752 145.278 147.69 145.324 147.645C145.369 147.6 145.431 147.575 145.495 147.575L161.36 147.333C161.424 147.333 161.485 147.359 161.531 147.404C161.576 147.449 161.602 147.511 161.602 147.575C161.602 147.639 161.576 147.7 161.531 147.745C161.485 147.79 161.424 147.816 161.36 147.816L145.495 148.057Z" fill="#E30613"/>
<path id="Vector_128" d="M148.642 151.196C148.577 151.196 148.516 151.171 148.47 151.125C148.425 151.08 148.399 151.019 148.399 150.955C148.399 150.891 148.425 150.83 148.47 150.784C148.516 150.739 148.577 150.714 148.642 150.714L159.906 150.473H159.911C159.973 150.477 160.031 150.504 160.073 150.549C160.115 150.594 160.138 150.653 160.138 150.714C160.138 150.776 160.115 150.835 160.073 150.88C160.031 150.925 159.973 150.952 159.911 150.956L148.646 151.196H148.642Z" fill="#E30613"/>
<path id="Vector_129" d="M87.6975 152.696H78.8097C78.7454 152.696 78.6838 152.671 78.6383 152.626C78.5929 152.58 78.5674 152.519 78.5674 152.455V142.529C78.5672 142.497 78.5734 142.465 78.5855 142.436C78.5976 142.407 78.6155 142.38 78.638 142.358C78.6605 142.335 78.6872 142.317 78.7167 142.305C78.7462 142.293 78.7778 142.286 78.8097 142.286H87.6975C87.7614 142.287 87.8223 142.313 87.8671 142.359C87.9119 142.404 87.9368 142.465 87.9365 142.529V152.454C87.9368 152.518 87.9119 152.579 87.8671 152.624C87.8223 152.67 87.7614 152.695 87.6975 152.696ZM79.052 152.217H87.4552V142.774H79.052V152.217Z" fill="#E30613"/>
</g>
</g>
</g>
</g>
</svg>
